<svg width="750" height="500" viewBox="0 0 750 500" fill="none" xmlns="http://www.w3.org/2000/svg">
<path d="M560.718 463.118H184.282C183.574 463.118 183 462.447 183 461.618C183 460.79 183.574 460.118 184.282 460.118H560.718C561.426 460.118 562 460.79 562 461.618C562 462.447 561.426 463.118 560.718 463.118Z" fill="#5195A8"/>
<path d="M540.535 460.119H199.437C161.586 410.055 142.2 333.805 148.018 262.271C153.835 190.738 184.991 123.852 229.962 86.3582C242.124 76.2189 256.123 67.935 270.232 70.6345C284.342 73.334 297.662 90.7217 295.725 110.004C294.333 123.87 285.724 136.552 288.346 150.082C290.729 162.379 301.84 168.156 310.972 165.673C320.104 163.19 327.683 154.838 335.04 147.042C357.644 123.084 382.073 101.783 408.93 88.3109C435.786 74.8386 465.281 69.4918 493.271 77.5832C549.684 93.8913 592.652 165.581 601.53 243.415C610.407 321.25 577.7 399.889 540.535 460.119Z" fill="#D1F4F5"/>
<path d="M361.76 71.1615C352.04 99.4005 328.842 96.2515 318.344 77.1195L322.354 106.337L365.77 100.379L361.76 71.1615Z" fill="#A34262"/>
<path d="M374.189 83.2755L372.694 75.4105L364.527 90.0315L344.581 107.149L320.761 96.0375L308.958 84.1565L309.637 92.1335C311.377 112.567 307.79 133.103 299.227 151.737L299.021 152.185L349.806 145.216L400.591 138.247L400.272 137.871C387.005 122.233 378.019 103.422 374.189 83.2755Z" fill="#A34262"/>
<path d="M379.221 79.1345L339.906 64.3295L338.932 57.2295C338.666 55.2875 336.869 53.9245 334.927 54.1915C331.793 54.6215 328.884 52.5215 328.27 49.4605C328.246 49.3395 327.715 45.5025 327.698 45.3785C327.251 42.1205 329.537 39.1065 332.795 38.6595L334.435 38.4345C337.693 37.9875 340.707 40.2745 341.154 43.5325L341.372 45.1195C341.461 45.7705 342.061 46.2255 342.712 46.1365C343.363 46.0475 343.818 45.4475 343.729 44.7965L343.511 43.2095C343.193 40.8955 341.947 38.9345 340.203 37.6435C338.512 36.3925 336.354 35.7705 334.111 36.0775L332.471 36.3025C327.914 36.9275 324.715 41.1445 325.34 45.7025C325.357 45.8265 325.887 49.6645 325.909 49.7865C326.705 54.1475 330.816 57.1575 335.249 56.5495C335.891 56.4615 336.485 56.9125 336.573 57.5535L337.547 64.6535L303.675 89.5025C301.443 91.1405 300.64 93.9645 301.68 96.5305C302.718 99.0965 305.26 100.567 308.002 100.191L377.932 90.5945C380.675 90.2185 382.725 88.1165 383.034 85.3655C383.345 82.6135 381.811 80.1105 379.221 79.1345ZM380.671 85.0995C380.528 86.3725 379.64 87.9575 377.61 88.2365L307.68 97.8335C305.649 98.1125 304.367 96.8245 303.886 95.6375C303.405 94.4495 303.43 92.6325 305.084 91.4205L339.007 66.5335L378.381 81.3615C380.301 82.0835 380.814 83.8265 380.671 85.0995Z" fill="#454F6B"/>
<path d="M400.591 138.247C370.515 123.483 368.622 106.908 372.695 75.4105L361.76 71.1605L360.317 83.7475C359.403 91.7195 353.203 98.0585 345.254 99.1495L343.517 99.3875L341.78 99.6255C333.831 100.716 326.152 96.2815 323.124 88.8515L318.343 77.1195L308.957 84.1575C321.365 113.392 324.007 129.866 299.02 152.185L310.282 214.133C312.89 228.48 314.395 243.004 314.784 257.581L315.097 269.336L365.882 262.367L416.667 255.398L413.802 243.995C410.249 229.853 407.786 215.458 406.433 200.939L400.591 138.247Z" fill="#CC6164"/>
<path d="M293.914 152.6C300.788 158.616 311.299 160.083 319.557 156.178C325.193 153.513 329.609 148.65 332.467 143.109C334.33 139.498 335.562 135.606 336.376 131.618C321.206 130.882 302.503 130.824 285.968 133.219C285.562 140.421 288.466 147.831 293.914 152.6Z" fill="#ECA85E"/>
<path d="M290.168 156.182C298.495 163.47 311.228 165.247 321.232 160.516C328.059 157.287 333.409 151.395 336.871 144.684C338.952 140.651 340.382 136.327 341.367 131.891C339.754 131.793 338.089 131.703 336.377 131.62C335.563 135.608 334.331 139.498 332.468 143.109C329.61 148.649 325.193 153.514 319.558 156.18C311.3 160.085 300.788 158.619 293.915 152.602C288.467 147.834 285.563 140.422 285.97 133.219C285.089 133.347 284.211 133.478 283.343 133.62C282.379 133.778 281.428 133.983 280.486 134.215C280.456 142.453 283.949 150.738 290.168 156.182Z" fill="white"/>
<path d="M403.336 201.732C403.336 201.732 393.207 171.351 377.63 148.387C371.436 139.255 361.438 133.434 350.44 132.535C347.68 132.309 344.63 132.087 341.367 131.889C340.382 136.326 338.952 140.649 336.871 144.682C333.409 151.393 328.059 157.286 321.232 160.514C311.229 165.245 298.495 163.468 290.168 156.18C283.949 150.737 280.456 142.45 280.485 134.212C272.235 136.247 264.918 141.099 259.852 147.997C250.924 160.151 236.058 180.906 223.401 201.053C229.747 208.873 238.45 214.755 248.073 217.727C247.712 224.599 246.766 239.089 246.766 239.089L370.069 238.98C370.069 238.98 367.295 228.807 367.295 217.76C378.867 214.606 387.985 212.151 403.336 201.732Z" fill="#F4D071"/>
<path d="M244.819 203.6C248.353 209.83 246.266 213.72 243.425 216.028C244.946 216.667 246.496 217.24 248.073 217.727C248.764 195.405 256.917 163.58 261.651 154.375C248.238 171.734 237.981 191.544 244.819 203.6Z" fill="#ECA85E"/>
<path d="M362.911 139.384C343.974 138.858 341.467 173.575 351.137 223.285C355.021 224.074 358.177 223.285 358.177 223.285C357.993 228.293 359.05 234.354 360.098 238.991L370.069 238.982C370.069 238.982 367.295 228.808 367.295 217.761C362.122 219.602 356.336 219.865 356.336 219.865C352.128 181.466 344.501 149.642 362.911 139.384Z" fill="#ECA85E"/>
<path d="M487.555 166.416C481.779 171.471 472.947 172.703 466.008 169.422C461.273 167.183 457.561 163.095 455.16 158.44C453.595 155.406 452.559 152.137 451.875 148.786C464.622 148.168 480.337 148.118 494.231 150.13C494.573 156.182 492.133 162.41 487.555 166.416Z" fill="#A34262"/>
<path d="M490.703 169.426C483.707 175.55 473.007 177.043 464.602 173.067C458.866 170.354 454.37 165.403 451.461 159.764C449.713 156.375 448.511 152.742 447.683 149.014C449.039 148.932 450.438 148.855 451.876 148.785C452.56 152.136 453.596 155.405 455.161 158.439C457.562 163.094 461.274 167.181 466.009 169.421C472.948 172.702 481.78 171.47 487.556 166.415C492.134 162.408 494.574 156.181 494.232 150.129C494.972 150.236 495.71 150.347 496.439 150.467C497.249 150.599 498.048 150.772 498.839 150.967C498.863 157.89 495.928 164.852 490.703 169.426Z" fill="#E8916A"/>
<path d="M395.613 207.699C395.613 207.699 404.124 182.173 417.212 162.878C422.417 155.205 430.818 150.312 440.059 149.557C442.378 149.368 444.941 149.182 447.683 149.016C448.51 152.744 449.712 156.377 451.461 159.766C454.37 165.405 458.866 170.355 464.602 173.068C473.007 177.043 483.707 175.551 490.703 169.428C495.928 164.854 498.864 157.892 498.839 150.969C505.771 152.679 511.919 156.755 516.176 162.551C523.677 172.764 536.168 190.202 546.804 207.13C541.472 213.701 534.159 218.644 526.073 221.141C526.376 226.915 527.172 239.089 527.172 239.089L423.567 238.999C423.567 238.999 425.898 230.451 425.898 221.169C416.173 218.517 408.512 216.453 395.613 207.699Z" fill="#CC6164"/>
<path d="M528.807 209.27C525.838 214.505 527.592 217.773 529.978 219.712C528.699 220.249 527.398 220.73 526.072 221.14C525.491 202.384 518.641 175.643 514.663 167.908C525.934 182.494 534.553 199.139 528.807 209.27Z" fill="#A34262"/>
<path d="M429.58 155.311C445.492 154.869 447.599 184.04 439.473 225.808C436.21 226.471 433.558 225.808 433.558 225.808C433.712 230.016 432.824 235.109 431.944 239.005L423.566 238.998C423.566 238.998 425.897 230.449 425.897 221.167C430.243 222.714 435.105 222.935 435.105 222.935C438.641 190.671 445.049 163.93 429.58 155.311Z" fill="#A34262"/>
<path d="M465.002 459.863H540.883V239.089H465.002V459.863Z" fill="#BD6C67"/>
<path d="M465.001 239.089H209.745V459.863H465.001V239.089Z" fill="#DF8D6D"/>
<path opacity="0.3" d="M209.745 459.863H465.001H540.882V436.587H534.92C507.612 436.587 485.474 414.45 485.474 387.142V328.754C485.474 311.323 499.604 297.193 517.035 297.193H540.881V239.092H465H209.745V299.297H378.999C396.43 299.297 410.56 313.427 410.56 330.858V388.983C410.56 416.291 388.422 438.428 361.114 438.428H209.745V459.863Z" fill="#422C4F"/>
<path d="M435.55 288.072H180.293L209.745 239.089H465.001L435.55 288.072Z" fill="#EF9C81"/>
<path d="M569.638 288.072H493.757L465.001 239.089H540.882L569.638 288.072Z" fill="#DF8D6D"/>
<path d="M263.576 230.594C255.32 230.594 247.719 235.432 244.551 243.057C241.076 251.42 239.51 260.696 239.081 269.798C238.423 283.766 240.172 297.733 240.279 311.716C240.386 325.699 238.703 340.143 231.793 352.299C239.48 359.69 251.631 360.583 262.295 360.641C272.959 360.699 284.072 359.898 293.838 364.18C297.749 343.074 289.387 321.384 288.456 299.939C287.477 277.385 296.288 254.976 312.327 239.089H321.532C317.443 233.735 311.092 230.594 304.355 230.594H263.576Z" fill="white"/>
<path d="M256.098 333.009C252.101 333.009 246.869 332.208 242.952 328.737C242.735 328.545 242.714 328.213 242.907 327.996C243.101 327.777 243.433 327.756 243.65 327.95C247.618 331.465 253.099 332.074 256.986 331.944C260.171 331.847 263.387 331.288 266.496 330.747C268.113 330.467 269.785 330.177 271.442 329.953C277.601 329.118 282.273 329.515 286.144 331.207C286.41 331.323 286.532 331.633 286.415 331.9C286.299 332.165 285.99 332.287 285.723 332.17C282.036 330.559 277.543 330.187 271.584 330.995C269.947 331.217 268.285 331.505 266.677 331.784C263.531 332.331 260.279 332.898 257.019 332.996C256.719 333.006 256.412 333.009 256.098 333.009Z" fill="#F6DCC5"/>
<path d="M255.191 323.405C257.696 318.264 259.115 311.597 259.297 304.495C259.52 297.384 258.546 289.854 257.45 282.514C256.383 275.183 255.531 267.842 256.539 261.066C257.517 254.314 260.296 248.193 264.437 244.221C263.286 245.062 262.159 246.048 261.106 247.188C260.072 248.34 259.115 249.637 258.261 251.051C256.553 253.883 255.324 257.192 254.56 260.708C253.04 267.803 253.724 275.522 254.796 282.893C255.9 290.286 257.061 297.565 257.287 304.5C257.543 311.415 256.855 317.937 255.191 323.405Z" fill="#F6DCC5"/>
<path d="M272.902 315.413C273.534 311.11 273.908 306.071 273.823 300.688C273.745 295.306 273.206 289.581 272.187 283.941C271.17 278.293 269.648 272.845 269.373 267.607C269.055 262.4 270.063 257.392 272.448 253.721C271.003 255.348 269.806 257.459 269.03 259.854C268.246 262.248 267.861 264.905 267.84 267.642C267.784 273.141 269.186 278.779 270.175 284.303C272.223 295.404 272.849 306.715 272.902 315.413Z" fill="#F6DCC5"/>
<path d="M480.565 239.089C494.478 247.169 498.338 266.6 497.871 282.682C497.73 287.517 497.063 292.347 497.365 297.174C497.668 302.001 499.071 306.976 502.453 310.434C505.624 313.675 510.227 315.229 514.756 315.447C519.689 315.684 524.587 314.472 529.304 313.062C534.461 311.52 539.546 309.742 544.529 307.707C550.548 305.249 557.379 303.263 561.513 297.818C562.909 295.98 563.84 293.794 564.033 291.495C564.645 284.193 558.14 280.491 552.077 280.044C547.456 279.703 542.87 280.837 538.26 281.302C533.65 281.767 528.641 281.446 524.96 278.633C521.892 276.289 520.204 272.536 519.325 268.777C518.445 265.018 518.255 261.13 517.52 257.339C515.94 249.197 511.754 241.591 505.773 235.852C504.137 234.282 501.963 233.393 499.696 233.393H488.742C485.092 233.393 481.829 235.666 480.565 239.089Z" fill="#454F6B"/>
<path d="M501.707 251.701C505.944 249.532 511.048 249.161 515.574 250.615C514.657 248.24 513.517 245.951 512.176 243.786C508.199 243.008 503.957 243.553 500.346 245.402C497.084 247.072 494.406 249.793 492.666 253.014C493.438 254.666 494.114 256.386 494.698 258.157C496.426 255.445 498.843 253.167 501.707 251.701Z" fill="white"/>
<path d="M505.177 264.143C509.197 262.085 513.994 261.663 518.342 262.864C518.102 261.017 517.874 259.166 517.52 257.339C517.476 257.112 517.422 256.888 517.374 256.662C512.925 255.323 507.957 255.723 503.816 257.843C500.755 259.41 498.197 261.896 496.454 264.858C496.914 267.138 497.258 269.453 497.493 271.766C499.232 268.54 501.912 265.815 505.177 264.143Z" fill="white"/>
<path d="M381 378.655L241.283 369L236 431.345L375.717 441L381 378.655Z" fill="#FBEED1"/>
<path d="M271.721 384.367L269.613 384.216C269.531 383.6 269.351 383.052 269.072 382.571C268.799 382.09 268.453 381.677 268.033 381.334C267.619 380.985 267.152 380.713 266.631 380.516C266.109 380.319 265.56 380.2 264.981 380.158C263.927 380.083 262.953 380.281 262.059 380.752C261.171 381.224 260.438 381.961 259.859 382.962C259.286 383.963 258.946 385.217 258.838 386.725C258.73 388.232 258.888 389.523 259.312 390.595C259.742 391.669 260.363 392.502 261.175 393.096C261.993 393.69 262.929 394.025 263.983 394.1C264.561 394.141 265.122 394.102 265.666 393.981C266.21 393.861 266.712 393.66 267.17 393.38C267.635 393.094 268.037 392.733 268.376 392.296C268.721 391.853 268.977 391.336 269.145 390.744L271.253 390.895C271.031 391.774 270.685 392.549 270.215 393.222C269.745 393.895 269.181 394.455 268.522 394.904C267.864 395.346 267.138 395.667 266.343 395.867C265.554 396.067 264.72 396.135 263.842 396.072C262.357 395.966 261.062 395.509 259.958 394.7C258.854 393.892 258.018 392.796 257.451 391.411C256.884 390.026 256.666 388.415 256.797 386.579C256.929 384.743 257.374 383.18 258.133 381.89C258.892 380.6 259.875 379.633 261.083 378.991C262.291 378.348 263.638 378.08 265.123 378.186C266.001 378.249 266.817 378.436 267.569 378.746C268.327 379.057 269 379.481 269.588 380.018C270.177 380.551 270.656 381.183 271.025 381.916C271.394 382.643 271.626 383.46 271.721 384.367ZM274.27 396.58L275.517 379.17L277.625 379.321L276.512 394.861L284.605 395.44L284.471 397.311L274.27 396.58ZM302.371 389.843C302.239 391.679 301.794 393.242 301.035 394.532C300.277 395.822 299.293 396.789 298.085 397.431C296.877 398.074 295.53 398.342 294.046 398.236C292.561 398.129 291.266 397.672 290.162 396.864C289.058 396.055 288.222 394.959 287.655 393.574C287.088 392.189 286.87 390.578 287.001 388.742C287.133 386.906 287.578 385.343 288.337 384.053C289.096 382.763 290.079 381.797 291.287 381.154C292.495 380.511 293.842 380.243 295.327 380.35C296.811 380.456 298.106 380.913 299.21 381.721C300.314 382.53 301.15 383.626 301.717 385.011C302.285 386.396 302.502 388.007 302.371 389.843ZM300.331 389.697C300.439 388.189 300.278 386.899 299.848 385.826C299.423 384.753 298.802 383.919 297.984 383.325C297.173 382.732 296.239 382.397 295.185 382.322C294.131 382.246 293.157 382.444 292.263 382.916C291.375 383.387 290.642 384.124 290.063 385.125C289.49 386.126 289.149 387.381 289.041 388.888C288.934 390.396 289.092 391.686 289.516 392.759C289.946 393.832 290.567 394.665 291.379 395.259C292.197 395.853 293.133 396.188 294.187 396.263C295.241 396.339 296.212 396.141 297.1 395.669C297.994 395.197 298.728 394.461 299.301 393.46C299.879 392.459 300.223 391.204 300.331 389.697ZM304.729 383.142L304.863 381.272L317.92 382.207L317.786 384.077L312.311 383.685L311.198 399.225L309.09 399.074L310.203 383.534L304.729 383.142ZM319.927 399.85L321.174 382.44L323.282 382.591L322.727 390.344L332.01 391.009L332.565 383.256L334.673 383.407L333.426 400.817L331.318 400.666L331.876 392.879L322.593 392.214L322.035 400.001L319.927 399.85ZM337.647 401.119L338.894 383.709L349.401 384.462L349.267 386.332L340.868 385.73L340.447 391.613L348.302 392.176L348.168 394.046L340.313 393.483L339.889 399.4L348.424 400.011L348.29 401.881L337.647 401.119ZM362.41 389.768C362.37 388.9 362.004 388.201 361.313 387.673C360.622 387.145 359.749 386.843 358.695 386.768C357.924 386.713 357.241 386.789 356.645 386.997C356.055 387.205 355.582 387.516 355.228 387.929C354.879 388.343 354.685 388.828 354.645 389.383C354.612 389.848 354.694 390.255 354.891 390.605C355.094 390.95 355.364 391.246 355.699 391.492C356.035 391.733 356.391 391.938 356.766 392.107C357.141 392.27 357.488 392.406 357.805 392.514L359.539 393.117C359.984 393.269 360.476 393.469 361.017 393.719C361.563 393.968 362.078 394.293 362.562 394.692C363.052 395.086 363.444 395.576 363.738 396.161C364.033 396.746 364.15 397.446 364.092 398.262C364.025 399.203 363.717 400.036 363.17 400.76C362.628 401.484 361.871 402.037 360.898 402.417C359.931 402.798 358.778 402.94 357.441 402.844C356.194 402.755 355.129 402.477 354.245 402.009C353.367 401.542 352.693 400.929 352.223 400.172C351.759 399.416 351.527 398.559 351.528 397.602L353.704 397.758C353.713 398.419 353.895 398.979 354.25 399.437C354.611 399.89 355.081 400.243 355.661 400.495C356.247 400.742 356.886 400.891 357.577 400.94C358.382 400.998 359.114 400.919 359.773 400.704C360.432 400.484 360.966 400.152 361.374 399.708C361.782 399.259 362.009 398.717 362.054 398.082C362.096 397.504 361.968 397.022 361.671 396.636C361.374 396.251 360.97 395.925 360.459 395.661C359.948 395.397 359.393 395.157 358.793 394.944L356.694 394.178C355.362 393.69 354.325 393.054 353.584 392.272C352.843 391.49 352.514 390.512 352.598 389.339C352.668 388.364 352.992 387.533 353.571 386.845C354.156 386.152 354.911 385.637 355.835 385.298C356.765 384.955 357.786 384.823 358.897 384.903C360.019 384.983 361.002 385.256 361.846 385.72C362.69 386.18 363.343 386.773 363.803 387.501C364.269 388.23 364.485 389.034 364.451 389.914L362.41 389.768ZM277.271 425.869L278.518 408.459L284.605 408.895C285.818 408.982 286.803 409.263 287.561 409.739C288.319 410.209 288.866 410.81 289.201 411.54C289.536 412.265 289.673 413.052 289.612 413.902C289.559 414.65 289.381 415.258 289.08 415.727C288.785 416.195 288.411 416.556 287.96 416.808C287.515 417.061 287.038 417.238 286.53 417.338L286.517 417.508C287.048 417.58 287.57 417.806 288.084 418.184C288.598 418.563 289.014 419.083 289.331 419.743C289.648 420.404 289.774 421.194 289.708 422.112C289.646 422.984 289.391 423.755 288.944 424.424C288.498 425.092 287.832 425.6 286.947 425.947C286.062 426.294 284.934 426.418 283.562 426.32L277.271 425.869ZM279.514 424.15L283.696 424.45C285.073 424.548 286.07 424.352 286.686 423.86C287.309 423.364 287.647 422.733 287.702 421.968C287.744 421.379 287.633 420.824 287.368 420.304C287.104 419.778 286.705 419.345 286.171 419.004C285.638 418.659 284.991 418.459 284.232 418.404L279.947 418.097L279.514 424.15ZM280.079 416.261L283.989 416.541C284.624 416.587 285.205 416.503 285.733 416.29C286.267 416.078 286.7 415.756 287.033 415.324C287.371 414.892 287.562 414.37 287.606 413.758C287.661 412.993 287.441 412.325 286.947 411.754C286.452 411.178 285.627 410.848 284.471 410.765L280.493 410.48L280.079 416.261ZM293.555 427.035L291.345 426.877L298.984 409.925L301.161 410.081L306.306 427.949L304.096 427.79L299.943 412.762L299.807 412.752L293.555 427.035ZM294.858 420.293L303.767 420.931L303.633 422.801L294.724 422.163L294.858 420.293ZM324.071 411.722L322.824 429.132L320.784 428.986L312.276 414.637L312.106 414.624L311.127 428.294L309.018 428.143L310.265 410.733L312.305 410.879L320.845 425.265L321.015 425.277L321.997 411.573L324.071 411.722ZM327.042 429.434L328.289 412.024L330.398 412.175L329.779 420.812L329.983 420.826L338.423 412.75L341.177 412.947L333.303 420.278L339.93 430.357L337.38 430.174L331.907 421.648L329.555 423.94L329.151 429.585L327.042 429.434Z" fill="#8A5943"/>
</svg>
