<svg width="499" height="499" viewBox="0 0 499 499" fill="none" xmlns="http://www.w3.org/2000/svg">
<path d="M219.567 375.904C221.159 377.739 222.797 379.55 224.54 381.294C226.295 383.038 228.095 384.68 229.941 386.266L232.107 388.439L232.28 388.27C239.762 394.345 247.918 399.149 256.469 402.727C264.379 406.046 272.628 408.329 281.009 409.523C287.028 410.389 293.114 410.705 299.19 410.457C299.752 410.424 300.314 410.379 300.866 410.379C307.998 410.311 315.12 412.414 321.218 416.644L330.106 425.533L344.383 439.799L443.965 340.217L428.222 324.488C421.632 317.884 418.235 309.31 417.984 300.657C418.945 296.282 419.675 291.86 420.143 287.416C420.649 282.476 420.866 277.493 420.762 272.519C420.593 263.384 419.261 254.292 417.011 245.383C413.938 233.232 408.975 221.474 402.047 210.582C398.58 205.137 394.595 199.95 390.164 195.01C388.697 193.379 387.308 191.705 385.741 190.13L385.551 189.948L385.594 189.915L365.468 169.945L351.686 156.275L326.715 131.488L314.648 119.517L314.254 119.123C313.815 118.673 313.308 118.314 312.824 117.92C309.853 115.455 306.108 113.904 301.945 113.926C292.484 113.96 284.855 121.654 284.876 131.118C284.9 135.236 286.419 138.948 288.855 141.885C289.411 142.549 289.952 143.213 290.592 143.787L301.967 155.07L302.54 155.646L327.517 180.43L341.299 194.111L358.593 211.258L358.794 211.461C361.776 214.544 361.754 219.46 358.706 222.498C355.756 225.458 351.055 225.547 347.961 222.836L347.223 222.094L330.273 205.138L327.534 202.405L327.573 202.359L316.582 191.368L291.707 166.49L281.839 156.624L277.988 152.765L253.106 127.889L182.652 57.4472L182.394 57.1555L182.112 56.8852C178.668 53.6012 174.237 51.9566 169.797 52.0017C165.335 52.036 160.877 53.7456 157.473 57.1555C154.063 60.5632 152.354 65.0206 152.309 69.4858C152.284 73.7723 153.827 78.0581 156.898 81.4465L157.473 82.0765L158.096 82.6392L196.626 121.163L214.087 138.634L228.218 152.765L244.623 169.158C238.85 172.252 233.281 175.864 227.96 179.959L214.492 166.491L203.68 155.679L179.525 131.513L135.702 87.7122L135.173 87.1044C128.288 80.2196 117.126 80.2196 110.241 87.1044C103.343 93.9914 103.356 105.151 110.241 112.036L110.713 112.464L154.548 156.297L178.715 180.465L189.618 191.367L203.547 205.294C199.609 210.796 196.189 216.569 193.309 222.508L175.891 205.093L164.939 194.134L140.767 169.966L105.387 134.593L105.337 134.662L104.764 134.03C101.432 130.7 97.089 128.99 92.7253 128.9C88.0777 128.787 83.4194 130.486 79.8758 134.03C76.3423 137.563 74.6441 142.232 74.7457 146.879C74.8365 150.975 76.3551 155.036 79.3131 158.275L79.8758 158.907L80.5058 159.481L115.791 194.763L140.002 218.974L151.049 230.024L177.119 256.081C182.598 241.071 196.971 230.305 213.843 230.305C229.683 230.305 243.342 239.767 249.509 253.314C255.662 239.767 269.321 230.305 285.15 230.305C306.731 230.305 324.289 247.867 324.289 269.448C324.289 274.104 323.471 278.572 321.965 282.724C320.006 288.157 316.856 293.051 312.838 297.069V297.08L250.931 358.589L249.592 359.141L248.257 358.589L188.57 299.296C187.008 297.957 185.532 296.507 184.199 294.954C181.46 291.769 179.345 288.091 177.727 284.153L102.907 209.323L85.2756 191.692L85.1526 191.557L85.0182 191.445C78.1205 184.683 67.0493 184.716 60.2102 191.557C53.7236 198.048 53.3404 208.322 59.0719 215.251L60.2102 216.513L61.4586 217.648L85.3564 241.546L174.587 330.766L174.513 330.844L219.567 375.904Z" fill="#FFC375"/>
<path d="M213.843 230.305C196.971 230.305 182.598 241.071 177.119 256.081C175.546 259.146 172.331 272.811 177.727 284.153C179.345 288.091 181.46 291.769 184.199 294.954C185.532 296.507 187.008 297.957 188.57 299.296L248.257 358.589L249.592 359.141L250.931 358.589L312.838 297.08V297.069C316.856 293.051 320.006 288.157 321.965 282.724C323.471 278.572 324.289 274.104 324.289 269.448C324.289 247.867 306.731 230.305 285.15 230.305C269.321 230.305 255.662 239.767 249.509 253.314C243.342 239.767 229.683 230.305 213.843 230.305Z" fill="#FFC375"/>
<path d="M166.878 273.303L177.727 284.153C172.331 272.811 175.546 259.146 177.119 256.081C173.182 261.583 169.758 267.364 166.878 273.303Z" fill="#FFC375"/>
<path fill-rule="evenodd" clip-rule="evenodd" d="M172.331 278.757L102.907 209.323C106.09 205.183 109.465 201.132 113.258 197.33L113.448 197.149L113.414 197.116L115.79 194.764L140.001 218.975C137.301 222.069 137.346 226.751 140.293 229.698C143.252 232.658 147.943 232.747 151.037 230.036L151.048 230.025L177.122 256.096C174.777 261.411 173.425 270.982 172.331 278.757Z" fill="#D4A362"/>
<path d="M55.0339 347.418L154.622 447L168.894 432.733L177.782 423.845C183.879 419.615 191.013 417.512 198.133 417.579C198.695 417.579 199.258 417.625 199.81 417.657C205.885 417.906 211.972 417.59 218.004 416.724C231.449 414.812 244.557 410.129 256.47 402.727C247.919 399.149 239.762 394.345 232.28 388.27L232.107 388.439L229.941 386.266C228.096 384.68 226.295 383.038 224.541 381.294C222.797 379.55 221.16 377.74 219.567 375.904L174.514 330.844L174.587 330.767L85.3554 241.547C80.9438 253.889 78.4791 266.771 78.2324 279.72C78.1416 284.694 78.334 289.677 78.8509 294.617C79.3357 299.061 80.0543 303.483 81.0239 307.858C80.7643 316.511 77.3673 325.085 70.7613 331.689L55.0339 347.418Z" fill="#D4A362"/>
<path d="M164.939 194.135L178.714 180.465L154.549 156.297L140.766 169.967L164.939 194.135Z" fill="#D4A362"/>
<path d="M413.983 198.646L413.848 198.758L413.736 198.893L402.048 210.583C408.976 221.475 413.94 233.232 417.012 245.383L437.541 224.85L438.791 223.715L439.925 222.454C445.655 215.524 445.291 205.251 438.801 198.76C431.949 191.917 420.875 191.885 413.983 198.646Z" fill="#D4A362"/>
<path d="M385.743 190.13C387.309 191.705 388.699 193.38 390.166 195.011L418.496 166.683L419.124 166.11L419.686 165.477C422.633 162.238 424.165 158.177 424.252 154.082C424.364 149.434 422.654 144.765 419.124 141.231C415.589 137.687 410.91 135.989 406.276 136.101C401.91 136.192 397.582 137.902 394.251 141.231L393.684 141.864L393.619 141.794L365.469 169.945L385.595 189.915L385.553 189.948L385.743 190.13Z" fill="#D4A362"/>
<path d="M341.301 194.111L330.276 205.137L347.226 222.093L347.964 222.835C351.058 225.546 355.759 225.458 358.708 222.497C361.756 219.459 361.778 214.544 358.797 211.46L358.596 211.257L341.301 194.111Z" fill="#D4A362"/>
<path d="M301.947 113.927C306.11 113.905 309.855 115.456 312.826 117.921L340.896 89.8386L341.526 89.2759L342.089 88.646C345.183 85.2583 346.715 80.9718 346.691 76.6853C346.646 72.2193 344.937 67.7627 341.526 64.3549C338.119 60.945 333.664 59.2354 329.196 59.2011C324.763 59.1561 320.336 60.8006 316.9 64.0847L316.606 64.3549L316.337 64.6466L253.107 127.888L277.99 152.763L288.857 141.884C286.421 138.948 284.902 135.235 284.878 131.118C284.857 121.655 292.485 113.961 301.947 113.927Z" fill="#D4A362"/>
<path d="M363.827 94.3046L363.297 94.9123L326.717 131.489L351.688 156.275L388.296 119.665L388.759 119.236C395.644 112.351 395.644 101.192 388.759 94.3046C381.879 87.4197 370.712 87.4197 363.827 94.3046Z" fill="#D4A362"/>
<path d="M184.364 126.717L179.526 131.512L203.681 155.678L208.406 150.987C211.817 147.938 213.976 143.537 214.089 138.632L196.627 121.161C191.976 121.273 187.783 123.219 184.757 126.323L184.364 126.717Z" fill="#D4A362"/>
<path d="M214.493 166.49L227.961 179.959C233.282 175.863 238.851 172.251 244.624 169.158L228.219 152.764L217.16 163.824L214.493 166.49Z" fill="#D4A362"/>
<path d="M193.308 222.509C196.188 216.57 199.609 210.797 203.547 205.295L189.617 191.368L175.891 205.094L193.308 222.509Z" fill="#D4A362"/>
<path d="M316.584 191.368L327.519 180.43L302.542 155.646L291.708 166.49L316.584 191.368Z" fill="#D4A362"/>
<path d="M300 273.5C300 301.114 277.614 323.5 250 323.5C222.386 323.5 200 301.114 200 273.5C200 245.886 250 131 250 131C250 131 300 245.886 300 273.5Z" fill="#FF3220"/>
</svg>
