<?xml version="1.0" encoding="utf-8"?>
<!-- Generator: Adobe Illustrator 27.5.0, SVG Export Plug-In . SVG Version: 6.00 Build 0)  -->
<svg version="1.1" xmlns="http://www.w3.org/2000/svg" xmlns:xlink="http://www.w3.org/1999/xlink" x="0px" y="0px"
	 viewBox="30 100 1200 1000" style="enable-background:new 0 0 1200 1200;" xml:space="preserve">
<g id="Graphic_Elements">
	<g>
		<g>
			<g>
				
					<path style="fill:#ffc375;stroke:#ffc375;stroke-width:18.6516;stroke-linecap:round;stroke-linejoin:round;stroke-miterlimit:10;" d="
					M741.032,716.831c0,0,65.476-59.437,80.414-72.777c28.516-25.466-4.778-52.654-24.68-48.064
					c-27.799,6.412-60.234,27.521-94.383,46.626c0,0-127.736,37.502-171.183,104.547c-62.153,95.913,68.817,174.742,68.817,174.742
					c56-53.234,105.752-90.167,164.003-116.961c42.512-19.555,87.123-39.238,101.584-42.669
					c30.147-7.154,48.277-68.546,56.577-108.363c7.741-37.14,29.42-117.963-2.502-117.964
					c-29.068-0.002-40.372,29.887-44.768,53.134c-4.537,23.994-10.967,47.591-19.934,70.305l-1.762,4.463l-80.551,24.293"/>
			</g>
		</g>
		
			<path style="fill:#ff3220;stroke:#ff3220;stroke-width:18.6516;stroke-linecap:round;stroke-linejoin:round;stroke-miterlimit:10;" d="
			M531.2,747.163c43.447-67.046,171.183-104.547,171.183-104.547c34.15-19.105,66.584-40.214,94.383-46.626
			c19.902-4.591,53.197,22.598,24.68,48.064c-14.937,13.34-48.784,44.088-48.784,44.088l80.552-24.293l1.761-4.463
			c8.967-22.713,15.397-46.311,19.934-70.305c4.396-23.247,15.701-53.136,44.768-53.134c8.702,0.001,13.4,6.034,15.504,15.525
			c12.168-42.107,9.754-69.145,9.754-69.145h-0.024c0.1-2.368,0.188-4.738,0.188-7.129c0-95.94-80.917-179.101-180.735-179.101
			c-72.979,0-135.812,46.985-164.346,106.839h-0.036c-28.535-59.854-91.368-106.839-164.347-106.839
			c-99.817,0-180.735,83.161-180.735,179.101c0,2.391,0.089,4.762,0.188,7.129h-0.024c0,0-10.203,113.969,116.629,238.401
			c47.453,47.547,99.554,93.167,175.661,155.907C519.82,844.568,498.065,798.295,531.2,747.163z"/>
	</g>
</g>
</svg>
