<?xml version="1.0" encoding="utf-8"?>
<!-- Generator: Adobe Illustrator 27.5.0, SVG Export Plug-In . SVG Version: 6.00 Build 0)  -->
<svg version="1.1" xmlns="http://www.w3.org/2000/svg" xmlns:xlink="http://www.w3.org/1999/xlink" x="0px" y="0px"
	 viewBox="0 0 750 500" style="enable-background:new 0 0 750 500;" xml:space="preserve">
<g id="BACKGROUND">
	<g>
		<path style="opacity:0.5;fill:#63A1EA;" d="M109.18,425.908c-90.49-65.243-79.844-234.836-13.356-301.324
			c73.457-73.457,153.025-34.817,181.324-22.35c39.544,17.42,68.236,39.413,111.439,40.189
			c37.411,0.671,75.714-42.257,136.268-38.325c81.974,5.323,89.683,75.03,129.88,99.007
			c60.682,36.196,84.457,152.237-22.357,222.803H109.18z"/>
	</g>
</g>
<g id="OBJECTS">
	<g>
		<defs>
			<rect id="SVGID_1_" x="28.73" y="72.607" width="701.355" height="353.301"/>
		</defs>
		<clipPath id="SVGID_00000032613404111051926130000009293149741002776194_">
			<use xlink:href="#SVGID_1_"  style="overflow:visible;"/>
		</clipPath>
		<g style="clip-path:url(#SVGID_00000032613404111051926130000009293149741002776194_);">
			<g>
				<g>
					<g>
						<g>
							<g>
								<g>
									<path style="fill:#ED9B77;" d="M274.527,331.391l9.764-20.286c0,0-12.729-6.062-13.737-8.064
										c-1.01-2.005-1.06-7.302-5.28-11.419c-1.546-1.508-3.576-4.798-5.267-7.8c-0.24-0.425-0.471-0.842-0.694-1.247
										c-1.115-2.036-2.003-3.786-2.366-4.512c-0.001-0.002-0.002-0.005-0.003-0.007c-0.099-0.199-0.346-0.271-0.535-0.154
										c-0.801,0.499-2.652,1.956-2.488,4.71c0.209,3.504,1.087,5.811,1.924,7.091c0,0,2.315,4.169,1.504,5.151
										c-1.065,1.284-4.998-1.074-4.998-1.074c-6.59-3.162-13.768-6.635-19.023-8.637c-0.726-0.277-1.476-0.558-2.252-0.531
										c-0.776,0.028-1.594,0.444-1.848,1.178c-0.373,1.069,0.546,2.121,1.41,2.852c3.32,2.805,14.779,9.465,14.08,10.183
										c-0.795,0.789-14.258-7.495-21.17-9.64c-0.903-0.278-3.448-0.263-4.134,1.219c-0.969,2.088,2.428,4.171,3.545,4.883
										c5.395,3.443,18.504,10.135,18.06,11.015c-0.449,0.892-12.154-4.582-17.297-6.531c-0.899-0.341-1.829-0.688-2.793-0.664
										c-0.963,0.026-1.98,0.512-2.339,1.406c-0.332,0.833-0.014,1.814,0.565,2.498c0.579,0.686,1.384,1.135,2.169,1.569
										c4.708,2.612,17.53,8.339,16.703,9.362c-0.796,0.979-7.908-1.919-11.949-2.686c-1.164-0.221-3.34,0.085-3.573,1.244
										c-0.184,0.905,0.768,2.149,2.04,2.82c2.613,1.378,6.061,2.349,8.819,3.405c10.01,3.833,18.961,6.762,29.656,6.043
										L274.527,331.391z"/>
								</g>
							</g>
						</g>
					</g>
				</g>
			</g>
			<g>
				<g>
					<g>
						<polygon style="fill:#FF9100;" points="396.446,428.294 508.62,428.294 503.309,392.482 400.526,392.607 						"/>
					</g>
				</g>
				<g>
					<g>
						<g>
							<path style="fill:#63A1EA;" d="M502.384,392.334H400.347c-0.053-0.053-0.096-0.096-0.127-0.149
								c-5.771-6.1-6.556-32.824-5.188-58.774c0.361-6.747,0.87-13.442,1.464-19.711c0.011-0.117,0.021-0.233,0.032-0.35
								c0.17-1.782,0.35-3.575,0.541-5.358c0.318-3.098,0.668-6.196,1.029-9.262c0.297-2.567,0.615-5.124,0.934-7.638
								c1.082-8.615,2.238-16.794,3.32-23.987c1.018-6.779,1.963-12.678,2.737-17.261c0.987-5.814,5.962-10.1,11.861-10.216
								c3.49-0.074,7.617-0.127,12.116-0.17c0.011,0,0.011,0,0.011,0c0.764-0.011,1.538-0.011,2.323-0.021
								c0.509,0,1.029,0,1.549-0.011c11.458-0.064,24.751-0.042,36.272,0h1.146c5.973,0.032,11.415,0.064,15.829,0.096
								c6.397,0.042,11.787,4.795,12.603,11.139c1.019,7.777,2.408,19.011,3.809,31.7c0.233,2.185,0.477,4.424,0.711,6.684
								c0,0.021,0,0.043,0.011,0.064c0.233,2.281,0.478,4.626,0.711,7.023c0.17,1.761,0.339,3.565,0.499,5.379
								c0.286,3.204,0.573,6.472,0.838,9.792c0.074,0.944,0.159,1.899,0.223,2.864c0.159,2.026,0.308,4.053,0.456,6.1
								c0.096,1.273,0.18,2.546,0.265,3.819c0.011,0.18,0.021,0.361,0.032,0.541c0.127,1.963,0.255,3.925,0.361,5.877
								c0.064,1.04,0.117,2.069,0.17,3.098c0.117,2.09,0.223,4.159,0.308,6.217c0.032,0.69,0.064,1.379,0.085,2.069
								c0.042,0.976,0.085,1.941,0.117,2.896C508.304,369.928,507.371,390.88,502.384,392.334z"/>
							<path style="opacity:0.5;fill:#D8170A;" d="M387.384,413.77c0,0,0.013,0,0.04,0c0,0,0-0.013,0-0.026
								C387.397,413.756,387.384,413.77,387.384,413.77z"/>
						</g>
					</g>
				</g>
				<g>
					<path style="fill:#63A1EA;" d="M595.107,271.391c-7.225,10.577-31.551,18.364-54.88,23.594
						c-13.367,2.992-26.395,5.156-35.689,6.525c-0.148,0.021-0.297,0.042-0.435,0.064c-2.673,0.392-5.029,0.711-6.97,0.976
						c-3.883,0.509-6.153,0.764-6.153,0.764s-1.178-2.652-2.981-6.885c-6.153-14.396-19.659-47.072-19.192-55.453
						c0.042-0.689,0.18-1.209,0.414-1.549c0.17-0.233,0.393-0.382,0.658-0.435c0.095-0.021,0.276-0.032,0.552-0.032
						c3.257-0.085,18.651,0.499,20.889,0.7c13.123,1.22,27.371,2.96,36.049,3.395c8.721,0.446,19.372-0.233,19.372-0.233
						c23.902-0.244,49.194-5.655,50.149,18.47C597.081,265.747,596.55,269.28,595.107,271.391z"/>
				</g>
				<g>
					<g>
						<g>
							<path style="fill:#ED9B77;" d="M432.188,238.527l-0.001,0.06c9.723,11.3,28.227,11.841,38.231,0.79l0.064-0.07
								c0,0-3.948-24.091-4.369-27.096c-0.01-0.105-0.021-0.21-0.043-0.327c-0.185-1.216-0.336-2.292-0.466-3.146
								c-0.044-0.269-0.076-0.514-0.12-0.737c-0.064-0.515-0.141-0.936-0.196-1.252c-8.193,1.764-29.126,6.816-29.126,6.816
								L432.188,238.527z"/>
						</g>
					</g>
					<g>
						<g>
							<path style="fill:#ED9B77;" d="M477.475,187.541c1.446-5.699,5.201-8.77,9.623-8.665c0.631,0.015,1.275,0.082,1.846,0.346
								c0.557,0.258,1.012,0.691,1.399,1.163c1.782,2.176,2.192,5.137,2.226,7.933c0.031,2.54-0.232,5.205-1.643,7.331
								c-1.342,2.022-3.696,3.356-6.144,3.484c-2.448,0.127-4.931-0.955-6.482-2.826L477.475,187.541z"/>
						</g>
						<g>
							<path style="fill:#ED9B77;" d="M423.932,187.541c-1.446-5.699-5.201-8.77-9.623-8.665c-0.631,0.015-1.275,0.082-1.846,0.346
								c-0.557,0.258-1.012,0.691-1.399,1.163c-1.782,2.176-2.192,5.137-2.226,7.933c-0.031,2.54,0.232,5.205,1.643,7.331
								c1.342,2.022,3.696,3.356,6.144,3.484c2.449,0.127,4.931-0.955,6.482-2.826L423.932,187.541z"/>
						</g>
					</g>
					<path style="fill:#663C24;" d="M486.513,157.684c-0.297,3.183-1.475,5.793-3.268,7.914c0.202,2.302,1.464,13.346-0.286,25.313
						c-1.623,11.182-5.877,23.16-16.073,29.578c-4.657,2.928-10.545,4.7-18.003,4.7c-19.797,0-28.485-15.691-31.562-32.188
						c-2.366-12.731-1.4-25.928,0.414-32.792c0.233-0.902,0.52-1.803,0.838-2.673c3.469-9.4,12.073-17.059,30.512-16.741
						c13.24,0.233,21.451,3.554,26.512,8.148c0.583-0.647,1.103-1.347,1.666-2.005c0.732-0.87,2.196-0.477,2.355,0.637
						c0.159,1.199-0.053,2.461-0.541,3.575c-0.159,0.361-0.34,0.7-0.541,1.029c0.064,0.085,0.127,0.17,0.18,0.255
						c0.52-0.35,1.018-0.764,1.538-1.103c1.156-0.774,3.034-1.029,3.681,0.191c0.297,0.562,0.202,1.241,0.074,1.857
						c-0.382,1.751-1.093,3.416-2.079,4.912c0.881-1.029,2.196-1.655,3.543-1.698c0.308-0.011,0.658,0.032,0.859,0.265
						C486.524,157.068,486.535,157.397,486.513,157.684z"/>
					<path style="opacity:0.1;fill:#663C24;" d="M482.959,190.911c-1.623,11.182-5.877,23.16-16.073,29.578
						c-4.657,2.928-10.545,4.7-18.003,4.7c-19.797,0-28.485-15.691-31.562-32.188c0.689,0.817,1.4,1.613,2.143,2.376
						c4.562,4.732,10.184,8.455,16.391,10.651c10.779,3.809,23.234,2.865,33.132-2.864
						C474.398,200.035,478.885,195.685,482.959,190.911z"/>
				</g>

					<path style="opacity:0.2;fill:none;stroke:#663C24;stroke-width:0.5305;stroke-linecap:round;stroke-linejoin:round;stroke-miterlimit:10;" d="
					M481.696,166.355c1.525,10.894-1.901,31.913-4.285,36.68c-2.537,5.074-7.025,13.27-20.1,21.466"/>

					<path style="opacity:0.2;fill:none;stroke:#663C24;stroke-width:0.5305;stroke-linecap:round;stroke-linejoin:round;stroke-miterlimit:10;" d="
					M444.962,141.08c3.318-0.555,6.648,0.853,9.542,2.569s5.632,3.798,8.84,4.811c3.208,1.014,7.141,0.694,9.351-1.842"/>

					<path style="opacity:0.2;fill:none;stroke:#663C24;stroke-width:0.5305;stroke-linecap:round;stroke-linejoin:round;stroke-miterlimit:10;" d="
					M478.876,152.355c-1.392,1.638-10.576,7.307-20.043,3.663c-17.129-6.594-20.569-2.932-22.926,0.143
					c-3.39,4.422-18.482,29.79,3.451,66.584"/>

					<path style="opacity:0.2;fill:none;stroke:#663C24;stroke-width:0.5305;stroke-linecap:round;stroke-linejoin:round;stroke-miterlimit:10;" d="
					M483.177,151.942c-1.08,2.279-3.088,3.984-5.21,5.346c-5.554,3.564-12.562,5.208-18.904,3.385
					c-3.484-1.001-13.867-4.924-16.637,0.566c-7.76,15.374-7.841,42.138,3.573,63.17"/>

					<path style="opacity:0.2;fill:none;stroke:#663C24;stroke-width:0.5305;stroke-linecap:round;stroke-linejoin:round;stroke-miterlimit:10;" d="
					M484.697,157.209c-2.161,2.389-4.876,4.509-8.026,5.185c-1.874,0.402-3.267,0.887-4.294,1.361
					c-1.666,0.768-2.72,2.428-2.779,4.261c-0.626,19.733-7.848,38.67-16.97,56.289"/>

					<path style="opacity:0.2;fill:none;stroke:#663C24;stroke-width:0.5305;stroke-linecap:round;stroke-linejoin:round;stroke-miterlimit:10;" d="
					M485.795,161.134c-2.953,2.806-7.255,4.579-9.498,5.37c-0.869,0.306-1.398,1.167-1.3,2.083
					c2.198,20.375-2.541,38.227-20.418,55.914"/>

					<path style="opacity:0.2;fill:none;stroke:#663C24;stroke-width:0.5305;stroke-linecap:round;stroke-linejoin:round;stroke-miterlimit:10;" d="
					M475.621,148.9c-0.778,1.485-9.478,8.286-20.426,0.139c-9.725-7.236-17.426-4.275-23.675-0.557c0,0-8.951,5.735-11.02,19.238
					c-1.174,7.658-0.496,15.493,0.786,23.134c1.785,10.632,3.387,21.025,10.551,29.081"/>
			</g>

				<line style="opacity:0.6;fill:none;stroke:#FF9100;stroke-width:0.5305;stroke-linecap:round;stroke-linejoin:round;stroke-miterlimit:10;" x1="399.993" y1="397.152" x2="504.119" y2="397.152"/>
			<g>
				<g style="opacity:0.5;">
					<polygon style="fill:#FF9100;" points="438.723,429.328 424.355,437.35 409.987,429.328 409.987,406.094 438.723,406.094
						"/>
					<polygon style="opacity:0.4;fill:#FF9100;" points="438.723,429.328 424.355,437.35 409.987,429.328 409.987,406.094
						438.723,406.094 					"/>
					<g>
						<g>
							<polyline style="fill:none;stroke:#FF9100;stroke-width:0.5305;stroke-linecap:round;stroke-linejoin:round;" points="
								414.02,428.789 412.424,427.898 412.424,426.07 							"/>

								<line style="fill:none;stroke:#FF9100;stroke-width:0.5305;stroke-linecap:round;stroke-linejoin:round;stroke-dasharray:3.1422,3.1422;" x1="412.424" y1="422.928" x2="412.424" y2="411.93"/>
							<polyline style="fill:none;stroke:#FF9100;stroke-width:0.5305;stroke-linecap:round;stroke-linejoin:round;" points="
								412.424,410.359 412.424,408.531 414.251,408.531 							"/>

								<line style="fill:none;stroke:#FF9100;stroke-width:0.5305;stroke-linecap:round;stroke-linejoin:round;stroke-dasharray:4.0413,4.0413;" x1="418.293" y1="408.531" x2="432.438" y2="408.531"/>
							<polyline style="fill:none;stroke:#FF9100;stroke-width:0.5305;stroke-linecap:round;stroke-linejoin:round;" points="
								434.458,408.531 436.286,408.531 436.286,410.359 							"/>

								<line style="fill:none;stroke:#FF9100;stroke-width:0.5305;stroke-linecap:round;stroke-linejoin:round;stroke-dasharray:3.1422,3.1422;" x1="436.286" y1="413.501" x2="436.286" y2="424.499"/>
							<polyline style="fill:none;stroke:#FF9100;stroke-width:0.5305;stroke-linecap:round;stroke-linejoin:round;" points="
								436.286,426.07 436.286,427.898 434.69,428.789 							"/>

								<line style="fill:none;stroke:#FF9100;stroke-width:0.5305;stroke-linecap:round;stroke-linejoin:round;stroke-dasharray:3.3361,3.3361;" x1="431.777" y1="430.415" x2="427.408" y2="432.854"/>
							<polyline style="fill:none;stroke:#FF9100;stroke-width:0.5305;stroke-linecap:round;stroke-linejoin:round;" points="
								425.951,433.667 424.355,434.558 422.759,433.667 							"/>

								<line style="fill:none;stroke:#FF9100;stroke-width:0.5305;stroke-linecap:round;stroke-linejoin:round;stroke-dasharray:3.3364,3.3364;" x1="419.846" y1="432.041" x2="415.476" y2="429.602"/>
						</g>
					</g>
				</g>
				<g style="opacity:0.5;">
					<polygon style="fill:#FF9100;" points="493.348,429.328 478.98,437.35 464.612,429.328 464.612,406.094 493.348,406.094
						"/>
					<polygon style="opacity:0.4;fill:#FF9100;" points="493.348,429.328 478.98,437.35 464.612,429.328 464.612,406.094
						493.348,406.094 					"/>
					<g>
						<g>
							<polyline style="fill:none;stroke:#FF9100;stroke-width:0.5305;stroke-linecap:round;stroke-linejoin:round;" points="
								468.645,428.789 467.049,427.898 467.049,426.07 							"/>

								<line style="fill:none;stroke:#FF9100;stroke-width:0.5305;stroke-linecap:round;stroke-linejoin:round;stroke-dasharray:3.1422,3.1422;" x1="467.049" y1="422.928" x2="467.049" y2="411.93"/>
							<polyline style="fill:none;stroke:#FF9100;stroke-width:0.5305;stroke-linecap:round;stroke-linejoin:round;" points="
								467.049,410.359 467.049,408.531 468.876,408.531 							"/>

								<line style="fill:none;stroke:#FF9100;stroke-width:0.5305;stroke-linecap:round;stroke-linejoin:round;stroke-dasharray:4.0413,4.0413;" x1="472.918" y1="408.531" x2="487.062" y2="408.531"/>
							<polyline style="fill:none;stroke:#FF9100;stroke-width:0.5305;stroke-linecap:round;stroke-linejoin:round;" points="
								489.083,408.531 490.911,408.531 490.911,410.359 							"/>

								<line style="fill:none;stroke:#FF9100;stroke-width:0.5305;stroke-linecap:round;stroke-linejoin:round;stroke-dasharray:3.1422,3.1422;" x1="490.911" y1="413.501" x2="490.911" y2="424.499"/>
							<polyline style="fill:none;stroke:#FF9100;stroke-width:0.5305;stroke-linecap:round;stroke-linejoin:round;" points="
								490.911,426.07 490.911,427.898 489.315,428.789 							"/>

								<line style="fill:none;stroke:#FF9100;stroke-width:0.5305;stroke-linecap:round;stroke-linejoin:round;stroke-dasharray:3.3361,3.3361;" x1="486.402" y1="430.415" x2="482.033" y2="432.854"/>
							<polyline style="fill:none;stroke:#FF9100;stroke-width:0.5305;stroke-linecap:round;stroke-linejoin:round;" points="
								480.576,433.667 478.98,434.558 477.384,433.667 							"/>

								<line style="fill:none;stroke:#FF9100;stroke-width:0.5305;stroke-linecap:round;stroke-linejoin:round;stroke-dasharray:3.3364,3.3364;" x1="474.471" y1="432.041" x2="470.101" y2="429.602"/>
						</g>
					</g>
				</g>
			</g>

				<line style="opacity:0.6;fill:none;stroke:#FF9100;stroke-width:0.5305;stroke-linecap:round;stroke-linejoin:round;stroke-miterlimit:10;" x1="451.751" y1="397.334" x2="451.751" y2="428.276"/>
			<g>
				<path style="fill:#63A1EA;" d="M359.376,356.558c7.638-12.14,6.075-27.814-5.09-31.957
					c-3.901-1.448-59.378-20.329-68.734-15.576c-7.03,3.572-12.568,17.66-10.295,23.635
					C279.154,342.905,349.862,371.68,359.376,356.558z"/>
			</g>
			<path style="fill:#63A1EA;" d="M431.421,239.256c-0.011,0.064-0.011,0.117-0.021,0.18c-0.944,7.066-6.991,24.305-18.11,43.688
				c-2.833,4.954-6.005,10.036-9.506,15.139c-0.318,0.477-0.658,0.955-0.987,1.432c-1.485,2.132-2.939,4.222-4.35,6.27
				c-0.456,0.679-0.923,1.358-1.379,2.026c-3.766,5.517-7.246,10.715-10.471,15.51c-17.781,26.448-28.071,41.163-39.317,34.978
				c-6.482-3.575-17.293-33.758-17.293-33.758c3.066-4.212,13.696-26.3,26.724-45.513c6.716-9.877,14.057-19.001,21.345-24.528
				c3.458-2.62,7.023-4.827,10.588-6.673C410.001,236.922,431.506,238.588,431.421,239.256z"/>
			<g>
				<path style="fill:#63A1EA;" d="M476.208,239.159c0,0-3.804,13.929-25.346,13.929c-20.002,0-24.944-14.407-24.944-14.407
					s4.623-2.773,6.778-0.001c2.235,2.874,9.341,8.782,17.884,8.782c12.295,0,19.2-8.414,19.2-8.414s1.958-1.247,4.113-0.767
					C476.048,238.76,476.208,239.159,476.208,239.159z"/>
				<path style="opacity:0.3;fill:#63A1EA;" d="M476.208,239.159c0,0-3.804,13.929-25.346,13.929
					c-20.002,0-24.944-14.407-24.944-14.407s4.623-2.773,6.778-0.001c2.235,2.874,9.341,8.782,17.884,8.782
					c12.295,0,19.2-8.414,19.2-8.414s1.958-1.247,4.113-0.767C476.048,238.76,476.208,239.159,476.208,239.159z"/>
			</g>
			<g>
				<polygon style="fill:#63A1EA;" points="272.632,304.25 263.624,325.79 275.422,332.669 285.871,308.944 				"/>
				<polygon style="opacity:0.3;fill:#63A1EA;" points="272.632,304.25 263.624,325.79 275.422,332.669 285.871,308.944 				"/>
			</g>
			<path style="opacity:0.2;fill:#63A1EA;" d="M596.89,261.291c-6.588,9.134-22.905,17.271-57.448,26.438
				c-0.17-0.7-0.382-1.39-0.626-2.069c-1.804-5.092-5.676-9.591-10.779-11.341c-5.672-1.932-11.913-0.279-17.286,2.523
				c0.106-1.07,0.069-2.15-0.134-3.192c-1.058-5.453-5.335-9.743-10.004-12.754c-18.872-12.168-51.743-12.532-72.214-21.76
				c-5.354-2.413-26.468,3.5-26.468,3.5s28.474,26.363,33.144,27.997c2.646,0.926,53.431,13.125,62.299,15.069
				c0.499,0.109,1.001,0.215,1.505,0.311c-2.512,2.816-4.579,6.004-5.937,9.534c-1.644,0.308-3.299,0.605-4.944,0.881
				c-20.857,3.596-41.884,5.241-63.081,5.092c-0.647-1.634-5.347-9.018-11.627-18.396c-3.331-4.965-7.097-10.492-10.938-16.02
				c-4.668-6.684-9.452-13.378-13.707-19.096c-3.565,1.846-7.129,4.053-10.588,6.673c-7.289,5.527-14.63,14.651-21.345,24.528
				c3.756,9.081,17.261,28.729,29.886,44.293c3.225-4.795,6.705-9.994,10.471-15.51c-0.191,1.782-0.371,3.575-0.541,5.358
				c-0.011,0.117-0.021,0.233-0.032,0.35c-0.594,6.27-1.103,12.964-1.464,19.711c-1.369,25.95-0.584,52.674,5.188,58.774
				c0.414-0.605,0.753-1.252,1.04-1.952c1.305-3.214,1.008-6.832,0.732-10.301c-0.626-7.967,0.159-23.022,0.944-38.5
				c2.228,1.984,4.116,3.321,5.517,3.83c13.028,4.721,73.796-15.15,87.45-20.603c0.064-0.021,0.127-0.053,0.191-0.064
				c0.392,21.483,2.854,49.586,1.899,61.713c-0.159,1.995-0.329,4.042-0.18,6.026h4.572c4.986-1.453,5.92-22.406,5.008-47.55
				c-0.032-0.965-0.074-1.931-0.117-2.896c-0.021-0.69-0.053-1.379-0.085-2.069c-0.085-2.058-0.191-4.127-0.308-6.217
				c-0.053-1.029-0.106-2.058-0.17-3.098c-0.106-1.952-0.233-3.915-0.361-5.877c-0.011-0.18-0.021-0.361-0.032-0.541
				c-0.085-1.273-0.17-2.546-0.265-3.819c-0.148-2.048-0.297-4.074-0.456-6.1c-0.064-0.965-0.148-1.92-0.223-2.864
				c-0.265-3.321-0.552-6.588-0.838-9.792c9.293-1.368,22.321-3.533,35.689-6.525c23.329-5.23,47.656-13.017,54.88-23.594
				C596.55,269.28,597.081,265.747,596.89,261.291z"/>
		</g>
		<g style="clip-path:url(#SVGID_00000032613404111051926130000009293149741002776194_);">
			<g>
				<path style="fill:#EDAF93;" d="M278.556,230.75l-8.906,43.683c0,0-25.61,70.504-34.631,75.538
					c-4.565,2.553-9.984,1.368-14.632-0.789l-0.01,0.004c-0.312-0.148-0.623-0.297-0.935-0.445
					c-0.031-0.023-0.044-0.029-0.058-0.036c-0.342-0.171-0.688-0.353-1.034-0.534c-0.085-0.049-0.17-0.098-0.264-0.143
					c-3.272-1.8-5.956-3.876-7.343-5.028c-0.147-0.128-0.303-0.253-0.46-0.377c-0.385-0.325-0.59-0.522-0.59-0.522
					c0.091-0.314,0.186-0.617,0.277-0.931c3.582-12.088,6.561-21.811,9.091-29.755c10.604-33.297,9.841-32.843,16.66-45.888
					C245.475,246.866,249.716,236.687,278.556,230.75z"/>
				<g>
					<g>
						<g>
							<g style="opacity:0.2;">
								<path style="fill:#D3835B;" d="M137.55,312.654c0.066-0.265,0.179-0.575,0.448-0.637c0.094-0.022,0.191-0.007,0.286,0.008
									c0.639,0.107,1.265,0.288,1.86,0.539c0.382,0.161,0.76,0.355,1.046,0.652c0.286,0.297,0.549,0.64,0.351,1.645
									c-0.121,0.617-0.956,0.924-1.557,1.133c-0.92,0.32-1.649,0.145-2.616-0.17C136.672,315.598,137.456,313.037,137.55,312.654z
									"/>
							</g>
							<g style="opacity:0.2;">
								<path style="fill:#D3835B;" d="M135.108,334.591c0.057-0.232,0.156-0.503,0.392-0.557c0.082-0.019,0.167-0.006,0.25,0.008
									c0.559,0.094,1.106,0.252,1.628,0.471c0.335,0.141,0.665,0.311,0.915,0.571c0.25,0.26,0.48,0.56,0.307,1.439
									c-0.106,0.54-0.836,0.808-1.362,0.991c-0.805,0.28-1.443,0.127-2.289-0.149C134.34,337.167,135.026,334.926,135.108,334.591
									z"/>
							</g>
							<g style="opacity:0.2;">
								<path style="fill:#D3835B;" d="M136.419,319.319c0.043-0.333,0.139-0.728,0.46-0.841c0.111-0.039,0.233-0.035,0.351-0.029
									c0.797,0.042,1.588,0.177,2.352,0.401c0.49,0.144,0.979,0.33,1.37,0.654c0.391,0.324,0.76,0.707,0.658,1.965
									c-0.063,0.772-1.042,1.263-1.748,1.602c-1.082,0.519-1.998,0.406-3.226,0.155
									C135.753,323.044,136.357,319.8,136.419,319.319z"/>
							</g>
							<g style="opacity:0.2;">
								<path style="fill:#D3835B;" d="M135.417,327.428c0.044-0.333,0.139-0.728,0.46-0.841c0.111-0.039,0.233-0.035,0.351-0.029
									c0.796,0.042,1.588,0.177,2.352,0.401c0.49,0.144,0.979,0.33,1.37,0.653c0.391,0.324,0.76,0.708,0.658,1.965
									c-0.063,0.772-1.041,1.263-1.748,1.602c-1.082,0.519-1.998,0.406-3.226,0.155
									C134.75,331.154,135.354,327.91,135.417,327.428z"/>
							</g>
						</g>
					</g>
					<path style="fill:#EDAF93;" d="M236.983,346.686c-0.474,2.33-1.842,4.031-4.447,4.587l-0.006,0.009
						c-0.339,0.065-0.678,0.131-1.016,0.196c-0.038,0-0.053,0.003-0.068,0.006c-0.377,0.065-0.763,0.124-1.149,0.184
						c-0.097,0.011-0.194,0.022-0.298,0.042c-2.647,0.336-5.649,0.419-8.894,0.312c-0.194-0.016-0.394-0.023-0.594-0.031
						c-3.936-0.164-8.188-0.619-12.615-1.269c-20.366-3.026-43.926-10.287-52.294-12.987c-2.014-0.658-3.151-1.042-3.151-1.042
						l0.186-17.586c0.026,0.018,1.788,0.159,4.732,0.37c10.503,0.737,36.059,2.317,51.682,2.187
						c4.738-0.037,8.555-0.247,10.774-0.668C227.177,319.577,238.772,337.753,236.983,346.686z"/>
				</g>
			</g>
			<g>
				<g>
					<path style="fill:#FF9100;" d="M275.967,335.533c0.011-0.021,0-0.106-0.011-0.244c-0.043-0.721-0.276-2.96-0.637-6.164
						l-0.233-1.952c-0.828-7.235-2.132-18.067-3.331-27.902c-0.138-1.199-0.286-2.387-0.435-3.554l-0.785-6.567l-0.18-1.432
						l-0.085-0.711c-0.785-6.312-1.326-10.736-1.358-11.012v-0.011c0-0.011,0.011-0.043,0.032-0.106v-0.011
						c0.637-2.472,13.972-43.105,13.972-43.105s1.146-0.212,2.663-0.414c0.774-0.096,1.655-0.202,2.514-0.255
						c0.011,0.042,0.021,0.085,0.032,0.138c2.005,8.01,8.657,15.479,24.57,15.479c13.558,0,20.401-2.228,23.361-11.341
						c0.446-1.369,0.806-2.631,1.082-3.713c0.043-0.127,0.064-0.244,0.096-0.361v-0.021h0.011c0.01-0.042,0.021-0.095,0.032-0.138
						c0.255,0.021,0.509,0.053,0.753,0.074c0.011,0,0.021,0,0.021,0c1.994,0.223,3.756,0.499,4.901,0.7c0.011,0,0.011,0,0.021,0
						c0.849,0.148,1.347,0.255,1.347,0.255l11.235,36.898v0.01l1.57,5.156l0.064,0.202l-0.011,0.095l-2.175,27.095l-2.387,29.769
						l-0.223,2.695l-0.127,1.613l1.581,5.379l1.369,4.657l5.156,17.579l3.299,11.256l-98.887-0.17c0,0,4.244-15.616,7.543-27.403
						c0.01,0,0.01-0.011,0.01-0.011c0.212-0.764,0.424-1.506,0.626-2.238c0.191-0.7,0.382-1.379,0.573-2.026
						c0.392-1.39,0.764-2.673,1.093-3.787c0.138-0.499,0.276-0.965,0.403-1.39c0.064-0.233,0.138-0.456,0.202-0.668
						C275.553,336.796,275.808,335.989,275.967,335.533z"/>
					<g>
						<path style="fill:#F9B295;" d="M342.643,232.915l14.751,42.434c0,0,44.443,56.517,54.319,59.546
							c14.624,4.486,17.712-10.676,20.187-14.631c0.267-0.427-37.125-53.06-46.365-64.518
							C374.576,242.167,365.908,232.979,342.643,232.915z"/>
						<g>
							<path style="fill:#F9B295;" d="M407.797,331.182c0.558,2.312,4.571,4.297,7.229,4.472
								c19.883,1.308,65.51-13.344,73.776-16.344c1.989-0.73,11.635-3.179,11.635-3.179l-2.431-16.614
								c-0.026,0.019-8.693,1.294-11.627,1.611c-10.469,1.114-35.953,3.613-51.57,4.045c-4.736,0.134-12.802,0.061-15.034-0.28
								C412.378,303.738,405.688,322.319,407.797,331.182z"/>
						</g>
					</g>
				</g>

					<polyline style="fill:none;stroke:#F28A0C;stroke-width:0.5305;stroke-linecap:round;stroke-linejoin:round;stroke-miterlimit:10;" points="
					268.912,275.635 268.944,275.868 268.944,275.879 268.965,276.112 270.27,287.008 270.355,287.718 270.535,289.151
					271.32,295.717 275.875,335.56 				"/>

					<polyline style="fill:none;stroke:#F28A0C;stroke-width:0.5305;stroke-linecap:round;stroke-linejoin:round;stroke-miterlimit:10;" points="
					275.32,329.125 275.914,334.059 275.924,334.133 276.062,335.289 276.084,335.501 				"/>

					<line style="fill:none;stroke:#F28A0C;stroke-width:0.5305;stroke-linecap:round;stroke-linejoin:round;stroke-miterlimit:10;" x1="351.988" y1="336.925" x2="357.105" y2="275.286"/>
				<path style="fill:#FF9100;" d="M357.105,275.286l14.825-36.046c0,0-11.92-8.946-34.692-6.961L357.105,275.286z"/>
				<path style="fill:#FF9100;" d="M269.193,276.554l-18.274-37.314c0,0,11.92-8.946,34.692-6.961L269.193,276.554z"/>
			</g>
			<g>
				<path style="fill:#FA5069;" d="M371.713,427.237H256.966c0,0,0.382-9.081,0.488-11.988c0.52-13.834,2.695-27.53,6.461-40.717
					l2.525-8.805l0.594-2.069l7.013-24.56l0.159-0.541l0.934-3.268h0.923l3.215-0.011l70.02-0.18l2.843-0.011h0.849l0.976,3.13
					l5.315,17.208l4.53,14.609c4.88,15.553,7.522,31.912,7.808,48.419C371.65,420.575,371.713,427.237,371.713,427.237z"/>
			</g>
			<path style="fill:#8E4720;" d="M365.867,235.845c-0.036-0.076-0.073-0.152-0.109-0.228c-3.402-7.012-8.278-13.394-10.322-20.915
				c-1.708-6.285-1.31-12.916-1.395-19.428c-0.109-8.426-1.405-27.469-3.257-33.046c-2.494-7.512-12.647-25.094-35.932-25.094
				c-26.581,0-36.518,17.07-38.85,24.678c-2.687,8.764-2.791,25.098-2.901,33.523c-0.085,6.512,0.313,13.143-1.395,19.428
				c-2.043,7.521-6.92,13.903-10.322,20.915c-0.034,0.07-0.068,0.14-0.102,0.211c-3.999,8.365,0.334,17.787,8.23,20.989
				c1.806,0.733,3.359,2.03,4.398,3.68c2.772,4.401,7.664,7.329,13.249,7.329c2.596,0,5.042-0.634,7.195-1.754
				c2.174-1.131,4.909-0.413,6.291,1.611c2.819,4.125,7.552,6.834,12.927,6.834c5.375,0,10.108-2.709,12.927-6.834
				c1.383-2.023,4.117-2.742,6.291-1.611c2.154,1.12,4.599,1.754,7.195,1.754c5.601,0,10.503-2.943,13.271-7.364
				c1.039-1.659,2.598-2.962,4.41-3.702C365.545,253.607,369.857,244.199,365.867,235.845z M327.074,163.699l-0.201,0
				c-0.092-0.167-0.173-0.34-0.271-0.504C326.751,163.37,326.921,163.526,327.074,163.699z M305.748,163.653
				c-0.014,0.024-0.024,0.051-0.037,0.075h-0.021C305.711,163.704,305.727,163.677,305.748,163.653z"/>
			<g>
				<defs>
					<path id="SVGID_00000019636206853282963580000008861516703746084265_" d="M256.964,427.233c0,0,0.383-9.082,0.493-11.986
						c0.522-13.833,2.69-27.526,6.461-40.711l2.522-8.806l0.593-2.074l7.178-25.102l0.929-3.261l77.851-0.21l0.973,3.132
						l5.319,17.214l4.523,14.601c4.886,15.558,7.523,31.914,7.806,48.42c0.036,2.13,0.097,8.785,0.097,8.785H256.964z"/>
				</defs>
				<clipPath id="SVGID_00000160913219495232134950000009126571898674700971_">
					<use xlink:href="#SVGID_00000019636206853282963580000008861516703746084265_"  style="overflow:visible;"/>
				</clipPath>
				<g style="clip-path:url(#SVGID_00000160913219495232134950000009126571898674700971_);">
					<path style="fill:none;stroke:#FFFFFF;stroke-width:0.5305;stroke-miterlimit:10;" d="M281.274,332.322
						c-11.477,29.58-21.497,63.959-20.499,95.122"/>
					<path style="fill:none;stroke:#FFFFFF;stroke-width:0.5305;stroke-miterlimit:10;" d="M286.013,332.322
						c-9.837,25.354-18.426,68.509-17.571,95.22"/>
					<path style="fill:none;stroke:#FFFFFF;stroke-width:0.5305;stroke-miterlimit:10;" d="M290.752,332.322
						c-8.198,21.128-15.355,73.059-14.642,95.318"/>
					<path style="fill:none;stroke:#FFFFFF;stroke-width:0.5305;stroke-miterlimit:10;" d="M295.491,332.322
						c-6.558,16.903-12.284,77.608-11.714,95.415"/>
					<path style="fill:none;stroke:#FFFFFF;stroke-width:0.5305;stroke-miterlimit:10;" d="M300.23,332.322
						c-4.919,12.677-9.213,82.158-8.785,95.513"/>
					<path style="fill:none;stroke:#FFFFFF;stroke-width:0.5305;stroke-miterlimit:10;" d="M304.97,332.322
						c-3.279,8.451-6.142,86.707-5.857,95.611"/>
					<path style="fill:none;stroke:#FFFFFF;stroke-width:0.5305;stroke-miterlimit:10;" d="M309.709,332.322
						c-1.639,4.226-3.071,91.257-2.928,95.709"/>

						<line style="fill:none;stroke:#FFFFFF;stroke-width:0.5305;stroke-miterlimit:10;" x1="314.448" y1="332.322" x2="314.448" y2="428.128"/>
				</g>
				<g style="clip-path:url(#SVGID_00000160913219495232134950000009126571898674700971_);">
					<path style="fill:none;stroke:#FFFFFF;stroke-width:0.5305;stroke-miterlimit:10;" d="M347.755,332.322
						c11.477,29.58,21.497,63.959,20.499,95.122"/>
					<path style="fill:none;stroke:#FFFFFF;stroke-width:0.5305;stroke-miterlimit:10;" d="M343.015,332.322
						c9.837,25.354,18.426,68.509,17.571,95.22"/>
					<path style="fill:none;stroke:#FFFFFF;stroke-width:0.5305;stroke-miterlimit:10;" d="M338.276,332.322
						c8.198,21.128,15.355,73.059,14.642,95.318"/>
					<path style="fill:none;stroke:#FFFFFF;stroke-width:0.5305;stroke-miterlimit:10;" d="M333.537,332.322
						c6.558,16.903,12.284,77.608,11.714,95.415"/>
					<path style="fill:none;stroke:#FFFFFF;stroke-width:0.5305;stroke-miterlimit:10;" d="M328.798,332.322
						c4.919,12.677,9.213,82.158,8.785,95.513"/>
					<path style="fill:none;stroke:#FFFFFF;stroke-width:0.5305;stroke-miterlimit:10;" d="M324.059,332.322
						c3.279,8.451,6.142,86.707,5.857,95.611"/>
					<path style="fill:none;stroke:#FFFFFF;stroke-width:0.5305;stroke-miterlimit:10;" d="M319.32,332.322
						c1.639,4.226,3.071,91.257,2.928,95.709"/>
				</g>
			</g>
			<g>
				<path style="opacity:0.2;fill:#FF9100;" d="M352.394,335.088l0.223-2.695c0.615-5.549,1.708-16.189,2.61-28.867
					c0.021-0.35,0.053-0.711,0.074-1.093c-0.095,0.032-0.191,0.095-0.297,0.191l2.175-27.095l-0.085-0.127l-0.149-0.233
					c-10.068,10.715-18.534,22.947-25.016,36.145c-11.829-4.615-25.356-8.806-38.002-7.617c-2.376,0.223-4.753,0.637-7.129,0.371
					c-1.91-0.212-3.756-0.849-5.57-1.485c-3.024-1.061-6.037-2.111-9.049-3.172c-0.138-0.053-0.276-0.095-0.424-0.138l-0.011-0.011
					l3.342,27.912l0.233,1.952c0.361,3.204,0.594,5.443,0.637,6.164h-0.817l-0.019,0.066h77.253L352.394,335.088z"/>
				<path style="opacity:0.5;fill:#FA5069;" d="M355.216,346.736c0.032,0.053,0.074,0.106,0.106,0.148l-1.475-4.806l-1.581-5.379
					l0.106-1.345h-77.253l-0.915,3.202l-0.159,0.541c0.18,0.286,0.371,0.562,0.584,0.838c0.509,0.711,1.093,1.369,1.719,1.984
					c2.875,2.864,6.716,4.838,10.439,6.588c16.603,7.861,33.821,14.481,51.549,19.277c4.106,1.103,8.402,2.122,12.572,1.305
					c3.501-0.679,6.609-2.589,9.463-4.774L355.216,346.736z"/>
			</g>
			<path style="opacity:0.2;fill:none;stroke:#A6531E;stroke-width:0.5305;stroke-miterlimit:10;" d="M271.357,257.735
				c6.236-7.856,10.16-17.383,12.229-27.197c2.069-9.814,2.34-19.934,1.791-29.948c-0.561-10.246-1.959-20.666,0.355-30.663
				c3.402-14.697,14.738-26.761,28.25-33.468"/>
			<path style="opacity:0.2;fill:none;stroke:#A6531E;stroke-width:0.5305;stroke-miterlimit:10;" d="M356.391,257.735
				c-6.236-7.856-10.16-17.383-12.229-27.197c-2.069-9.814-2.34-19.934-1.791-29.948c0.561-10.246,1.959-20.666-0.355-30.663
				c-3.402-14.697-14.737-26.761-28.25-33.468"/>
			<path style="opacity:0.2;fill:none;stroke:#A6531E;stroke-width:0.5305;stroke-miterlimit:10;" d="M297.292,265.293
				c5.099-10.398,6.815-22.822,6.185-34.386c-0.664-12.172-4.566-23.895-7.295-35.776c-1.097-4.777-2.01-9.628-2.081-14.529
				c-0.234-16.294,8.798-31.309,19.342-43.734"/>
			<path style="opacity:0.2;fill:none;stroke:#A6531E;stroke-width:0.5305;stroke-miterlimit:10;" d="M329.92,265.293
				c-5.099-10.398-6.815-22.822-6.184-34.386c0.664-12.172,4.566-23.895,7.294-35.776c1.097-4.777,2.01-9.628,2.081-14.529
				c0.234-16.294-8.798-31.309-19.342-43.734"/>
			<path style="opacity:0.2;fill:none;stroke:#A6531E;stroke-width:0.5305;stroke-miterlimit:10;" d="M261.004,247.141
				c0.065-5.428,3.054-10.37,6.326-14.702c3.272-4.332,6.987-8.475,8.93-13.545c1.626-4.244,1.901-8.875,1.932-13.419
				c0.076-11.435-1.282-22.924,0.127-34.272c0.6-4.831,1.717-9.646,3.876-14.009c5.218-10.544,16.181-17.436,27.667-19.976"/>
			<path style="opacity:0.2;fill:none;stroke:#A6531E;stroke-width:0.5305;stroke-miterlimit:10;" d="M366.322,247.141
				c-0.065-5.428-3.054-10.37-6.326-14.702c-3.272-4.332-6.987-8.475-8.93-13.545c-1.626-4.244-1.901-8.875-1.932-13.419
				c-0.076-11.435,1.282-22.924-0.127-34.272c-0.6-4.831-1.717-9.646-3.876-14.009c-5.218-10.544-16.181-17.436-27.667-19.976"/>
		</g>
		<g style="clip-path:url(#SVGID_00000032613404111051926130000009293149741002776194_);">
			<g>
				<g>
					<g>
						<path style="fill:#FCC3B1;" d="M673.742,336.778c2.231,0.823,4.397,0.555,6.241-1.367l0.011,0
							c0.234-0.254,0.468-0.507,0.702-0.761c0.02-0.033,0.03-0.044,0.04-0.055c0.254-0.286,0.507-0.583,0.761-0.88
							c0.06-0.077,0.121-0.154,0.193-0.231c1.678-2.075,3.329-4.583,4.946-7.399c0.089-0.173,0.188-0.347,0.287-0.521
							c1.931-3.433,3.782-7.288,5.56-11.395c8.144-18.91,20.694-63.398,20.694-63.398l-17.187-6.322
							c0.001,0.032-20.493,42.196-28.825,55.412c-2.524,4.009-4.712,7.145-6.237,8.81
							C655.851,314.175,665.204,333.599,673.742,336.778z"/>
						<g>
							<g>
								<g>
									<path style="fill:#FCC3B1;" d="M707.249,267.751l-15.923-9.233c0,0,4.121-10.888,3.578-12.658
										c-0.544-1.773-3.542-4.957-3.38-9.824c0.059-1.783-0.611-4.904-1.319-7.659c-0.1-0.391-0.201-0.771-0.3-1.14
										c-0.499-1.851-0.97-3.401-1.169-4.042c-0.001-0.002-0.002-0.004-0.002-0.006c-0.055-0.175,0.051-0.36,0.231-0.398
										c0.763-0.161,2.698-0.35,4.175,1.385c1.878,2.208,2.673,4.085,2.906,5.326c0,0,1.004,3.808,2.048,3.929
										c1.368,0.157,2.365-3.497,2.365-3.497c2.12-5.651,4.413-11.824,6.401-16.021c0.274-0.58,0.561-1.176,1.039-1.603
										c0.478-0.427,1.204-0.646,1.775-0.355c0.833,0.424,0.887,1.576,0.79,2.506c-0.375,3.569-3.398,14.088-2.571,14.116
										c0.925,0.016,4.214-12.616,7.107-17.845c0.379-0.682,1.905-2.127,3.161-1.636c1.771,0.691,0.937,3.873,0.679,4.937
										c-1.247,5.135-5.235,16.617-4.467,16.887c0.777,0.275,4.624-9.678,6.576-13.779c0.341-0.717,0.697-1.456,1.285-1.992
										c0.588-0.535,1.473-0.827,2.198-0.499c0.674,0.307,1.046,1.073,1.091,1.812c0.047,0.74-0.176,1.467-0.396,2.175
										c-1.313,4.247-5.681,14.99-4.604,15.126c1.034,0.128,3.616-5.664,5.586-8.43c0.567-0.797,2.039-1.858,2.84-1.301
										c0.627,0.435,0.771,1.72,0.396,2.847c-0.77,2.315-2.27,4.864-3.31,7.07c-3.775,8.006-7.435,14.868-14.22,20.552
										L707.249,267.751z"/>
								</g>
							</g>
						</g>
					</g>
					<path style="fill:#FCC3B1;" d="M617.58,295.58c0.106,0.106,30.652,32.48,30.758,32.586c7.851,7.458,14.736,12.954,18.354,13.42
						c5.188,0.668,9.781-2.44,13.293-6.174h0.011c0.233-0.255,0.467-0.509,0.7-0.764c0.021-0.032,0.032-0.042,0.042-0.053
						c0.255-0.286,0.509-0.583,0.764-0.88c0.053-0.074,0.117-0.149,0.191-0.233c2.366-2.886,4.084-5.814,4.944-7.395
						c0.085-0.18,0.191-0.35,0.286-0.52c0.233-0.445,0.35-0.711,0.35-0.711c-0.202-0.255-0.403-0.499-0.605-0.753
						c-7.819-9.888-14.205-17.813-19.499-24.242c-0.997-1.199-24.406-26.346-25.318-27.449L617.58,295.58z"/>
					<path style="fill:#FA5069;" d="M581.07,239.89c0,0,27.357,45.172,28.365,46.35c2.794,3.252,14.463,18.983,14.463,18.983
						l26.59-26.389c0,0-12.016-13.119-16.572-18.316c-8.625-9.842-17.765-16.928-30.649-19.658
						C598.972,239.95,586.881,239.67,581.07,239.89z"/>
					<g style="opacity:0.6;">
						<defs>
							<path id="SVGID_00000087399096812501174080000005914921970146109354_" style="opacity:0.6;" d="M597.922,243.705
								c0,0,10.505,41.357,11.513,42.535c2.794,3.252,14.463,18.983,14.463,18.983l26.59-26.389c0,0-12.016-13.119-16.572-18.316
								c-8.625-9.842-17.765-16.928-30.649-19.658C598.972,239.95,603.733,243.485,597.922,243.705z"/>
						</defs>
						<clipPath id="SVGID_00000119100290049066454130000001174492161224522132_">
							<use xlink:href="#SVGID_00000087399096812501174080000005914921970146109354_"  style="overflow:visible;"/>
						</clipPath>
						<g style="clip-path:url(#SVGID_00000119100290049066454130000001174492161224522132_);">
							<g>
								<path style="fill:none;stroke:#FA5069;stroke-width:4.2436;stroke-miterlimit:10;" d="M569.017,233.067
									c4.13,4.377,1.044,7.289,5.174,11.666c4.129,4.376,7.216,1.464,11.345,5.84c4.129,4.376,1.042,7.288,5.171,11.664
									c4.129,4.375,7.215,1.463,11.344,5.839s1.042,7.288,5.171,11.664c4.13,4.377,7.216,1.464,11.346,5.841
									c4.131,4.378,1.045,7.291,5.176,11.669c4.13,4.377,7.216,1.465,11.347,5.841c4.133,4.38,1.046,7.292,5.179,11.672
									c4.133,4.38,7.219,1.468,11.352,5.847"/>
							</g>
							<g>
								<path style="fill:none;stroke:#FA5069;stroke-width:4.2436;stroke-miterlimit:10;" d="M586.275,216.782
									c4.13,4.377,1.044,7.289,5.174,11.666c4.129,4.376,7.216,1.464,11.345,5.84c4.129,4.376,1.043,7.288,5.171,11.664
									c4.129,4.375,7.215,1.463,11.344,5.839c4.129,4.376,1.043,7.288,5.171,11.664c4.13,4.377,7.216,1.464,11.346,5.841
									c4.131,4.378,1.045,7.291,5.177,11.669c4.13,4.377,7.216,1.465,11.347,5.841c4.133,4.38,1.047,7.292,5.18,11.672
									c4.133,4.38,7.219,1.467,11.352,5.847"/>
							</g>
						</g>
						<g style="clip-path:url(#SVGID_00000119100290049066454130000001174492161224522132_);">
							<g>
								<path style="fill:none;stroke:#FA5069;stroke-width:1.0609;stroke-miterlimit:10;" d="M578.41,226.022
									c4.13,4.377,1.044,7.289,5.174,11.666c4.129,4.376,7.216,1.464,11.345,5.84c4.129,4.376,1.042,7.288,5.171,11.664
									c4.129,4.376,7.215,1.463,11.344,5.839c4.129,4.376,1.042,7.288,5.171,11.664c4.13,4.377,7.216,1.464,11.346,5.841
									c4.131,4.378,1.045,7.291,5.176,11.669c4.13,4.377,7.217,1.464,11.347,5.841c4.133,4.38,1.047,7.292,5.18,11.672
									c4.133,4.38,7.219,1.467,11.352,5.847"/>
							</g>
						</g>
					</g>
				</g>
				<g>
					<path style="fill:#FA5069;" d="M630.975,427.577l-128.84,0.405c1.931-5.782,19.755-82.474,20.254-83.906
						c0.212-0.583-2.419-66.359-2.419-66.359l9.729-37.322c0,0,3.74-0.446,15.015-0.979c4.275-0.202,34.867-0.227,37.772-0.049
						c6.247,0.381,14.38,1.425,14.38,1.425l12.271,44.006l-0.888,60.445L630.975,427.577z"/>
				</g>
				<path style="opacity:0.2;fill:#FA5069;" d="M629.351,421.384c-5.502-4.785-26.54-71.464-27.304-74.88
					c-0.552-2.525,4.513-59.637,7.367-60.486c-0.021,0.382-0.053,0.743-0.074,1.093c-1.337,18.736-1.092,58.132-1.092,58.132
					L629.351,421.384z"/>
				<path style="opacity:0.2;fill:#FA5069;" d="M530.847,344.12c-0.902,4.074-23.979,74.021-26.111,76.503
					c-0.499,0.583-1.114,0.965-1.188,0.965c0.106-0.329,18.343-76.081,18.841-77.513c0.212-0.583,0.588-39.171-1.459-56.007
					c-0.064-0.52-0.128-1.05-0.191-1.613C524.059,287.156,531.409,341.595,530.847,344.12z"/>

					<polyline style="fill:none;stroke:#ED2F54;stroke-width:0.5305;stroke-linecap:round;stroke-linejoin:round;stroke-miterlimit:10;" points="
					629.033,420.995 607.997,345.335 609.272,286.264 596.918,240.722 				"/>
				<g>
					<path style="fill:#FCC3B1;" d="M422.742,232.944c-7.846,4.049-9.548,9.233-9.548,9.233l20.359,18.048
						c3.035,2.691,6.686,4.588,10.632,5.526c9.691,2.302,28.365,6.759,35.001,8.485l13.23-33.536
						c-2.96-0.444-42.087-4.466-42.087-4.466S434.037,227.114,422.742,232.944z"/>
					<path style="fill:#FA5069;" d="M512.635,239.342c-5.397-0.299-15.101-0.799-22.408-1.894l-12.94,38.504
						c14.285,4.822,30.503,8.68,44.613,10.23c2.387,0.255,4.721,0.467,6.97,0.605c0,0,5.652-6.15,8.983-19.284
						c4.063-15.967,4.275-27.923,4.275-27.923C531.859,239.188,526.756,240.106,512.635,239.342z"/>
					<g style="opacity:0.6;">
						<defs>
							<path id="SVGID_00000044870916513246473050000011086050996546046085_" style="opacity:0.6;" d="M512.635,239.342
								c-5.397-0.299-15.101-0.799-22.408-1.894l-12.94,38.504c14.51,5.674,43.145,10.579,43.145,10.579l8.976-46.906
								C519.139,239.233,526.756,240.106,512.635,239.342z"/>
						</defs>
						<clipPath id="SVGID_00000066487915449639137340000005778117546193474223_">
							<use xlink:href="#SVGID_00000044870916513246473050000011086050996546046085_"  style="overflow:visible;"/>
						</clipPath>
						<g style="clip-path:url(#SVGID_00000066487915449639137340000005778117546193474223_);">
							<g>
								<path style="fill:none;stroke:#FA5069;stroke-width:4.2436;stroke-miterlimit:10;" d="M563.428,282.85
									c-5.919-1.088-5.151-5.262-11.07-6.35c-5.918-1.088-6.685,3.085-12.603,1.997c-5.918-1.088-5.151-5.262-11.069-6.35
									c-5.918-1.088-6.686,3.085-12.604,1.997c-5.916-1.088-5.149-5.262-11.065-6.35c-5.918-1.088-6.686,3.085-12.604,1.997
									c-5.92-1.089-5.152-5.262-11.072-6.351c-5.918-1.088-6.686,3.085-12.604,1.997c-5.922-1.089-5.155-5.263-11.077-6.352
									c-5.922-1.089-6.69,3.084-12.612,1.995"/>
							</g>
							<g>
								<path style="fill:none;stroke:#FA5069;stroke-width:4.2436;stroke-miterlimit:10;" d="M567.72,259.514
									c-5.919-1.088-5.151-5.262-11.07-6.351c-5.918-1.088-6.685,3.085-12.603,1.997c-5.918-1.088-5.151-5.262-11.069-6.35
									c-5.918-1.088-6.686,3.085-12.604,1.997c-5.917-1.088-5.149-5.262-11.065-6.35c-5.918-1.088-6.686,3.085-12.604,1.997
									c-5.92-1.089-5.152-5.262-11.072-6.351c-5.918-1.088-6.686,3.085-12.604,1.997c-5.922-1.089-5.155-5.263-11.077-6.352
									c-5.922-1.089-6.69,3.085-12.612,1.995"/>
							</g>
						</g>
						<g style="clip-path:url(#SVGID_00000066487915449639137340000005778117546193474223_);">
							<g>
								<path style="fill:none;stroke:#FA5069;stroke-width:1.0609;stroke-miterlimit:10;" d="M567.733,272.17
									c-5.919-1.088-5.151-5.262-11.07-6.35c-5.918-1.088-6.685,3.085-12.603,1.997c-5.918-1.088-5.151-5.262-11.069-6.35
									c-5.918-1.088-6.686,3.085-12.604,1.997c-5.917-1.088-5.149-5.262-11.065-6.35c-5.918-1.088-6.685,3.085-12.603,1.997
									c-5.92-1.089-5.152-5.262-11.073-6.351c-5.918-1.088-6.686,3.085-12.604,1.997c-5.922-1.089-5.155-5.263-11.077-6.352
									c-5.922-1.089-6.69,3.084-12.612,1.995"/>
							</g>
							<g>
								<path style="fill:none;stroke:#FA5069;stroke-width:1.0609;stroke-miterlimit:10;" d="M561.067,294.624
									c-5.919-1.088-5.151-5.262-11.07-6.351c-5.918-1.088-6.685,3.085-12.603,1.997c-5.918-1.088-5.151-5.262-11.069-6.35
									c-5.918-1.088-6.686,3.085-12.604,1.997c-5.916-1.088-5.149-5.262-11.065-6.35c-5.918-1.088-6.686,3.085-12.604,1.997
									c-5.92-1.089-5.152-5.262-11.073-6.351c-5.918-1.088-6.686,3.085-12.604,1.997c-5.922-1.089-5.155-5.263-11.077-6.352
									c-5.922-1.089-6.69,3.085-12.612,1.995"/>
							</g>
						</g>
					</g>
				</g>

					<polyline style="fill:none;stroke:#ED2F54;stroke-width:0.5305;stroke-linecap:round;stroke-linejoin:round;stroke-miterlimit:10;" points="
					503.737,421.26 522.546,343.907 520.587,286.266 529.571,240.802 				"/>
			</g>
			<g>
				<path style="fill:none;" d="M629.033,420.731l-125.296-0.264c1.931-5.782,18.153-74.959,18.652-76.391
					c0.212-0.583-1.744-57.706-1.744-57.706l9.054-45.975c0,0,3.74-0.446,15.015-0.979c4.275-0.202,34.867-0.227,37.772-0.049
					c6.247,0.381,14.17-0.1,14.17-0.1l12.754,47.443l-1.162,58.533L629.033,420.731z"/>
			</g>
			<g style="opacity:0.6;">
				<defs>
					<path id="SVGID_00000015353165112804357290000002504042196469765524_" style="opacity:0.6;" d="M631.178,427.78l-129.245,0.203
						c1.931-5.782,19.958-82.474,20.456-83.906c0.212-0.583-1.803-57.81-1.803-57.81l9.112-45.871c0,0,3.74-0.446,15.015-0.979
						c4.275-0.202,34.867-0.227,37.772-0.049c6.247,0.381,14.38,1.425,14.38,1.425l12.271,44.006l-0.888,60.445L631.178,427.78z"/>
				</defs>
				<clipPath id="SVGID_00000007408116975442916880000014073012317016063128_">
					<use xlink:href="#SVGID_00000015353165112804357290000002504042196469765524_"  style="overflow:visible;"/>
				</clipPath>
				<g style="clip-path:url(#SVGID_00000007408116975442916880000014073012317016063128_);">
					<g>
						<path style="fill:none;stroke:#FA5069;stroke-width:4.2436;stroke-miterlimit:10;" d="M506.623,365.405
							c6.018,0,6.018,4.244,12.036,4.244c6.017,0,6.017-4.244,12.034-4.244c6.017,0,6.017,4.244,12.035,4.244
							c6.018,0,6.018-4.244,12.035-4.244c6.016,0,6.016,4.244,12.031,4.244c6.017,0,6.017-4.244,12.034-4.244
							c6.019,0,6.019,4.244,12.039,4.244c6.017,0,6.017-4.244,12.035-4.244c6.022,0,6.022,4.244,12.043,4.244
							c6.022,0,6.022-4.244,12.043-4.244"/>
					</g>
					<g>
						<path style="fill:none;stroke:#FA5069;stroke-width:4.2436;stroke-miterlimit:10;" d="M506.623,341.677
							c6.018,0,6.018,4.244,12.036,4.244c6.017,0,6.017-4.244,12.034-4.244c6.017,0,6.017,4.244,12.035,4.244
							c6.018,0,6.018-4.244,12.035-4.244c6.016,0,6.016,4.244,12.031,4.244c6.017,0,6.017-4.244,12.034-4.244
							c6.019,0,6.019,4.244,12.039,4.244c6.017,0,6.017-4.244,12.035-4.244c6.022,0,6.022,4.244,12.043,4.244
							c6.022,0,6.022-4.244,12.043-4.244"/>
					</g>
					<g>
						<path style="fill:none;stroke:#FA5069;stroke-width:4.2436;stroke-miterlimit:10;" d="M506.623,317.949
							c6.018,0,6.018,4.244,12.036,4.244c6.017,0,6.017-4.244,12.034-4.244c6.017,0,6.017,4.244,12.035,4.244
							c6.018,0,6.018-4.244,12.035-4.244c6.016,0,6.016,4.244,12.031,4.244c6.017,0,6.017-4.244,12.034-4.244
							c6.019,0,6.019,4.244,12.039,4.244c6.017,0,6.017-4.244,12.035-4.244c6.022,0,6.022,4.244,12.043,4.244
							c6.022,0,6.022-4.244,12.043-4.244"/>
					</g>
					<g>
						<path style="fill:none;stroke:#FA5069;stroke-width:4.2436;stroke-miterlimit:10;" d="M506.623,294.221
							c6.018,0,6.018,4.244,12.036,4.244c6.017,0,6.017-4.244,12.034-4.244c6.017,0,6.017,4.244,12.035,4.244
							c6.018,0,6.018-4.244,12.035-4.244c6.016,0,6.016,4.244,12.031,4.244c6.017,0,6.017-4.244,12.034-4.244
							c6.019,0,6.019,4.244,12.039,4.244c6.017,0,6.017-4.244,12.035-4.244c6.022,0,6.022,4.244,12.043,4.244
							c6.022,0,6.022-4.244,12.043-4.244"/>
					</g>
					<g>
						<path style="fill:none;stroke:#FA5069;stroke-width:4.2436;stroke-miterlimit:10;" d="M506.623,270.493
							c6.018,0,6.018,4.244,12.036,4.244c6.017,0,6.017-4.244,12.034-4.244c6.017,0,6.017,4.244,12.035,4.244
							c6.018,0,6.018-4.244,12.035-4.244c6.016,0,6.016,4.244,12.031,4.244c6.017,0,6.017-4.244,12.034-4.244
							c6.019,0,6.019,4.244,12.039,4.244c6.017,0,6.017-4.244,12.035-4.244c6.022,0,6.022,4.244,12.043,4.244
							c6.022,0,6.022-4.244,12.043-4.244"/>
					</g>
					<g>
						<path style="fill:none;stroke:#FA5069;stroke-width:4.2436;stroke-miterlimit:10;" d="M506.623,246.765
							c6.018,0,6.018,4.244,12.036,4.244c6.017,0,6.017-4.244,12.034-4.244c6.017,0,6.017,4.244,12.035,4.244
							c6.018,0,6.018-4.244,12.035-4.244c6.016,0,6.016,4.244,12.031,4.244c6.017,0,6.017-4.244,12.034-4.244
							c6.019,0,6.019,4.244,12.039,4.244c6.017,0,6.017-4.244,12.035-4.244c6.022,0,6.022,4.244,12.043,4.244
							c6.022,0,6.022-4.244,12.043-4.244"/>
					</g>
					<g>
						<path style="fill:none;stroke:#FA5069;stroke-width:4.2436;stroke-miterlimit:10;" d="M506.623,389.132
							c6.018,0,6.018,4.244,12.036,4.244c6.017,0,6.017-4.244,12.034-4.244c6.017,0,6.017,4.244,12.035,4.244
							c6.018,0,6.018-4.244,12.035-4.244c6.016,0,6.016,4.244,12.031,4.244c6.017,0,6.017-4.244,12.034-4.244
							c6.019,0,6.019,4.244,12.039,4.244c6.017,0,6.017-4.244,12.035-4.244c6.022,0,6.022,4.244,12.043,4.244
							c6.022,0,6.022-4.244,12.043-4.244"/>
					</g>
					<g>
						<path style="fill:none;stroke:#FA5069;stroke-width:4.2436;stroke-miterlimit:10;" d="M503.44,412.86
							c6.336,0,6.336,4.244,12.672,4.244c6.335,0,6.335-4.244,12.67-4.244c6.336,0,6.336,4.244,12.671,4.244
							c6.336,0,6.336-4.244,12.672-4.244c6.334,0,6.334,4.244,12.668,4.244c6.336,0,6.336-4.244,12.671-4.244
							c6.338,0,6.338,4.244,12.675,4.244c6.336,0,6.336-4.244,12.671-4.244c6.34,0,6.34,4.244,12.68,4.244
							c6.34,0,6.34-4.244,12.68-4.244"/>
					</g>
				</g>
				<g style="clip-path:url(#SVGID_00000007408116975442916880000014073012317016063128_);">
					<g>
						<path style="fill:none;stroke:#FA5069;stroke-width:1.0609;stroke-miterlimit:10;" d="M506.623,352.761
							c6.018,0,6.018,4.244,12.036,4.244c6.017,0,6.017-4.244,12.034-4.244c6.017,0,6.017,4.244,12.035,4.244
							c6.018,0,6.018-4.244,12.035-4.244c6.016,0,6.016,4.244,12.031,4.244c6.017,0,6.017-4.244,12.034-4.244
							c6.019,0,6.019,4.244,12.039,4.244c6.017,0,6.017-4.244,12.035-4.244c6.022,0,6.022,4.244,12.043,4.244
							c6.022,0,6.022-4.244,12.043-4.244"/>
					</g>
					<g>
						<path style="fill:none;stroke:#FA5069;stroke-width:1.0609;stroke-miterlimit:10;" d="M506.623,329.033
							c6.018,0,6.018,4.244,12.036,4.244c6.017,0,6.017-4.244,12.034-4.244c6.017,0,6.017,4.244,12.035,4.244
							c6.018,0,6.018-4.244,12.035-4.244c6.016,0,6.016,4.244,12.031,4.244c6.017,0,6.017-4.244,12.034-4.244
							c6.019,0,6.019,4.244,12.039,4.244c6.017,0,6.017-4.244,12.035-4.244c6.022,0,6.022,4.244,12.043,4.244
							c6.022,0,6.022-4.244,12.043-4.244"/>
					</g>
					<g>
						<path style="fill:none;stroke:#FA5069;stroke-width:1.0609;stroke-miterlimit:10;" d="M506.623,305.305
							c6.018,0,6.018,4.244,12.036,4.244c6.017,0,6.017-4.244,12.034-4.244c6.017,0,6.017,4.244,12.035,4.244
							c6.018,0,6.018-4.244,12.035-4.244c6.016,0,6.016,4.244,12.031,4.244c6.017,0,6.017-4.244,12.034-4.244
							c6.019,0,6.019,4.244,12.039,4.244c6.017,0,6.017-4.244,12.035-4.244c6.022,0,6.022,4.244,12.043,4.244
							c6.022,0,6.022-4.244,12.043-4.244"/>
					</g>
					<g>
						<path style="fill:none;stroke:#FA5069;stroke-width:1.0609;stroke-miterlimit:10;" d="M506.623,281.578
							c6.018,0,6.018,4.244,12.036,4.244c6.017,0,6.017-4.244,12.034-4.244c6.017,0,6.017,4.244,12.035,4.244
							c6.018,0,6.018-4.244,12.035-4.244c6.016,0,6.016,4.244,12.031,4.244c6.017,0,6.017-4.244,12.034-4.244
							c6.019,0,6.019,4.244,12.039,4.244c6.017,0,6.017-4.244,12.035-4.244c6.022,0,6.022,4.244,12.043,4.244
							c6.022,0,6.022-4.244,12.043-4.244"/>
					</g>
					<g>
						<path style="fill:none;stroke:#FA5069;stroke-width:1.0609;stroke-miterlimit:10;" d="M506.623,257.85
							c6.018,0,6.018,4.244,12.036,4.244c6.017,0,6.017-4.244,12.034-4.244c6.017,0,6.017,4.244,12.035,4.244
							c6.018,0,6.018-4.244,12.035-4.244c6.016,0,6.016,4.244,12.031,4.244c6.017,0,6.017-4.244,12.034-4.244
							c6.019,0,6.019,4.244,12.039,4.244c6.017,0,6.017-4.244,12.035-4.244c6.022,0,6.022,4.244,12.043,4.244
							c6.022,0,6.022-4.244,12.043-4.244"/>
					</g>
					<g>
						<path style="fill:none;stroke:#FA5069;stroke-width:1.0609;stroke-miterlimit:10;" d="M506.623,234.122
							c6.018,0,6.018,4.244,12.036,4.244c6.017,0,6.017-4.244,12.034-4.244c6.017,0,6.017,4.244,12.035,4.244
							c6.018,0,6.018-4.244,12.035-4.244c6.016,0,6.016,4.244,12.031,4.244c6.017,0,6.017-4.244,12.034-4.244
							c6.019,0,6.019,4.244,12.039,4.244c6.017,0,6.017-4.244,12.035-4.244c6.022,0,6.022,4.244,12.043,4.244
							c6.022,0,6.022-4.244,12.043-4.244"/>
					</g>
					<g>
						<path style="fill:none;stroke:#FA5069;stroke-width:1.0609;stroke-miterlimit:10;" d="M506.623,376.489
							c6.018,0,6.018,4.244,12.036,4.244c6.017,0,6.017-4.244,12.034-4.244c6.017,0,6.017,4.244,12.035,4.244
							c6.018,0,6.018-4.244,12.035-4.244c6.016,0,6.016,4.244,12.031,4.244c6.017,0,6.017-4.244,12.034-4.244
							c6.019,0,6.019,4.244,12.039,4.244c6.017,0,6.017-4.244,12.035-4.244c6.022,0,6.022,4.244,12.043,4.244
							c6.022,0,6.022-4.244,12.043-4.244"/>
					</g>
					<g>
						<path style="fill:none;stroke:#FA5069;stroke-width:1.0609;stroke-miterlimit:10;" d="M503.44,400.217
							c6.336,0,6.336,4.244,12.672,4.244c6.335,0,6.335-4.244,12.67-4.244c6.336,0,6.336,4.244,12.671,4.244
							c6.336,0,6.336-4.244,12.672-4.244c6.334,0,6.334,4.244,12.668,4.244c6.336,0,6.336-4.244,12.671-4.244
							c6.338,0,6.338,4.244,12.675,4.244c6.336,0,6.336-4.244,12.671-4.244c6.34,0,6.34,4.244,12.68,4.244
							c6.34,0,6.34-4.244,12.68-4.244"/>
					</g>
					<g>
						<path style="fill:none;stroke:#FA5069;stroke-width:1.0609;stroke-miterlimit:10;" d="M503.44,424.217
							c6.336,0,6.336,4.244,12.672,4.244c6.335,0,6.335-4.244,12.67-4.244c6.336,0,6.336,4.244,12.671,4.244
							c6.336,0,6.336-4.244,12.672-4.244c6.334,0,6.334,4.244,12.668,4.244c6.336,0,6.336-4.244,12.671-4.244
							c6.338,0,6.338,4.244,12.675,4.244c6.336,0,6.336-4.244,12.671-4.244c6.34,0,6.34,4.244,12.68,4.244
							c6.34,0,6.34-4.244,12.68-4.244"/>
					</g>
				</g>
			</g>
			<g>
				<path style="fill:#F29E3B;" d="M607.924,212.331c-0.513-2.26-0.769-4.578-0.739-6.895c0.034-2.57,0.404-5.137,0.241-7.702
					c-0.174-2.74-0.966-5.438-2.299-7.838c-0.384-0.691-0.81-1.353-1.259-1.999c-1.977-2.84-4.555-5.799-4.555-9.259
					c0-12.9-18.695-26.954-34.797-24.253c-17.059-2.373-34.922,10.674-34.922,23.199c0,3.779-2.908,6.969-5.097,10.05
					c-0.518,0.729-1.008,1.476-1.445,2.261c-1.333,2.4-2.125,5.098-2.299,7.838c-0.163,2.565,0.208,5.132,0.241,7.702
					c0.03,2.283-0.219,4.566-0.717,6.794c-1.705,4.464-14.812,13.8-12.238,37.138c0,0,5.267,0,13.509,0
					c0.724-2.338,1.593-4.63,2.62-6.851c0.142,2.284,0.284,4.567,0.427,6.851c4.753,0,10.267,0,16.216,0
					c0.577-1.64,1.232-3.252,1.962-4.83c0.1,1.61,0.201,3.22,0.301,4.83c13.835,0,29.661,0,43.361,0c0.1-1.61,0.201-3.22,0.301-4.83
					c0.729,1.578,1.384,3.19,1.961,4.83c6.552,0,12.545,0,17.499,0c0.142-2.284,0.284-4.567,0.427-6.851
					c1.027,2.221,1.897,4.513,2.62,6.851c6.712,0,10.879,0,10.879,0C622.7,226.03,609.628,216.756,607.924,212.331z"/>
				<g>
					<defs>
						<path id="SVGID_00000155861907151890314870000014202169481195728060_" d="M607.924,212.331
							c-0.513-2.26-0.769-4.578-0.739-6.895c0.034-2.57,0.404-5.137,0.241-7.702c-0.174-2.74-0.966-5.438-2.299-7.838
							c-0.384-0.691-0.81-1.353-1.259-1.999c-1.977-2.84-4.555-5.799-4.555-9.259c0-12.9-18.695-26.954-34.797-24.253
							c-17.059-2.373-34.922,10.674-34.922,23.199c0,3.779-2.908,6.969-5.097,10.05c-0.518,0.729-1.008,1.476-1.445,2.261
							c-1.333,2.4-2.125,5.098-2.299,7.838c-0.163,2.565,0.208,5.132,0.241,7.702c0.03,2.283-0.219,4.566-0.717,6.794
							c-1.705,4.464-14.812,13.8-12.238,37.138c0,0,5.267,0,13.509,0c0.724-2.338,1.593-4.63,2.62-6.851
							c0.142,2.284,0.284,4.567,0.427,6.851c4.753,0,10.267,0,16.216,0c0.577-1.64,1.232-3.252,1.962-4.83
							c0.1,1.61,0.201,3.22,0.301,4.83c13.835,0,29.661,0,43.361,0c0.1-1.61,0.201-3.22,0.301-4.83
							c0.729,1.578,1.384,3.19,1.961,4.83c6.552,0,12.545,0,17.499,0c0.142-2.284,0.284-4.567,0.427-6.851
							c1.027,2.221,1.897,4.513,2.62,6.851c6.712,0,10.879,0,10.879,0C622.7,226.03,609.628,216.756,607.924,212.331z"/>
					</defs>
					<clipPath id="SVGID_00000150823302377429439760000012722485199081924250_">
						<use xlink:href="#SVGID_00000155861907151890314870000014202169481195728060_"  style="overflow:visible;"/>
					</clipPath>
					<g style="clip-path:url(#SVGID_00000150823302377429439760000012722485199081924250_);">
						<path style="opacity:0.3;fill:none;stroke:#F29E3B;stroke-width:0.5052;stroke-miterlimit:10;" d="M564.625,153.64
							c-6.019,1.064-11.399,6.041-14.867,11.074c-4.055,5.887-5.236,13.407-9.407,19.212c-2.026,2.819-4.714,5.166-6.373,8.215
							c-3.64,6.688-1.585,15.154-4.217,22.299c-0.992,2.694-2.616,5.098-4.044,7.588c-5.059,8.82-7.992,17.313-7.928,27.482"/>
						<path style="opacity:0.3;fill:none;stroke:#F29E3B;stroke-width:0.5052;stroke-miterlimit:10;" d="M564.562,153.577
							c6.019,1.063,12.261,6.103,15.728,11.137c4.055,5.887,5.235,13.407,9.407,19.212c2.026,2.819,4.714,5.166,6.373,8.215
							c3.64,6.688,1.585,15.154,4.217,22.299c0.992,2.694,2.616,5.098,4.044,7.588c5.059,8.82,7.992,17.313,7.928,27.482"/>
						<path style="opacity:0.3;fill:none;stroke:#F29E3B;stroke-width:0.5052;stroke-miterlimit:10;" d="M532.072,249.153
							c-1.141-3.901,0.493-8.054,2.472-11.604s4.388-7.028,4.955-11.052c0.713-5.059-1.613-10.141-1.133-15.227
							c0.721-7.628,7.448-13.392,9.368-20.81c0.823-3.181,0.72-6.518,1.089-9.783c1.125-9.964,7.108-21.753,15.552-27.162"/>
						<path style="opacity:0.3;fill:none;stroke:#F29E3B;stroke-width:0.5052;stroke-miterlimit:10;" d="M597.916,249.153
							c1.141-3.901-0.493-8.054-2.472-11.604c-1.98-3.549-4.388-7.028-4.955-11.052c-0.713-5.059,1.614-10.141,1.133-15.227
							c-0.721-7.628-7.448-13.392-9.367-20.81c-0.823-3.181-0.72-6.518-1.089-9.783c-1.125-9.964-8.285-21.815-16.729-27.225"/>
						<path style="opacity:0.3;fill:none;stroke:#F29E3B;stroke-width:0.5052;stroke-miterlimit:10;" d="M566.14,150.259
							c-2.557,3.508-5.57,12.195-6.874,16.335c-2.216,7.031-0.438,14.745-1.962,21.957c-1.409,6.67-5.603,12.745-5.62,19.563
							c-0.01,3.923,1.38,7.693,2.334,11.498c1.423,5.675,1.892,11.589,1.38,17.418c-0.361,4.112-1.195,8.331-0.072,12.302"/>
						<path style="opacity:0.3;fill:none;stroke:#F29E3B;stroke-width:0.5052;stroke-miterlimit:10;" d="M563.805,150.259
							c2.557,3.508,5.57,12.195,6.874,16.335c2.216,7.031,0.438,14.745,1.962,21.957c1.409,6.67,5.603,12.745,5.62,19.563
							c0.01,3.923-1.38,7.693-2.334,11.498c-1.423,5.675-1.892,11.589-1.38,17.418c0.361,4.112,1.195,8.331,0.072,12.302"/>
						<path style="opacity:0.3;fill:none;stroke:#F29E3B;stroke-width:0.5052;stroke-miterlimit:10;" d="M509.253,250.963
							c-0.995-8.268,1.135-18.896,5.871-25.746c2.881-4.167,6.737-7.807,8.36-12.606c2.633-7.789-1.172-17.052,2.8-24.251
							c1.477-2.678,3.902-4.753,5.284-7.481c1.645-3.249,1.654-7.108,3.111-10.445c1.801-4.126,5.596-7.004,9.414-9.389
							c6.239-3.896,12.977-6.994,19.996-9.193"/>
						<path style="opacity:0.3;fill:none;stroke:#F29E3B;stroke-width:0.5052;stroke-miterlimit:10;" d="M619.075,250.963
							c0.995-8.268-1.135-18.896-5.871-25.746c-2.881-4.167-6.737-7.807-8.36-12.606c-2.634-7.789,1.172-17.052-2.8-24.251
							c-1.477-2.678-3.902-4.753-5.284-7.481c-1.645-3.249-1.654-7.108-3.111-10.445c-1.801-4.126-5.596-7.004-9.414-9.389
							c-6.239-3.896-12.977-6.994-19.996-9.193"/>
					</g>
				</g>
			</g>
		</g>
		<g style="clip-path:url(#SVGID_00000032613404111051926130000009293149741002776194_);">
			<defs>
				<path id="SVGID_00000116212928005686953880000012265511339513351866_" d="M357.135,278.694c0,0,26.59,44.267,32.92,49.542
					l-26.162,39.137l-86.197-19.965l-61.162-33.275l0.317-26.937l41.831-12.359L357.135,278.694z"/>
			</defs>
			<clipPath id="SVGID_00000031208700598622196820000012510801512927999934_">
				<use xlink:href="#SVGID_00000116212928005686953880000012265511339513351866_"  style="overflow:visible;"/>
			</clipPath>
			<g style="clip-path:url(#SVGID_00000031208700598622196820000012510801512927999934_);">
				<g>
					<g>
						<g>
							<g>
								<g>
									<g>
										<path style="fill:#ED9B77;" d="M274.527,331.391l9.764-20.286c0,0-12.729-6.062-13.737-8.064
											c-1.01-2.005-1.06-7.302-5.28-11.419c-1.546-1.508-3.576-4.798-5.267-7.8c-0.24-0.425-0.471-0.842-0.694-1.247
											c-1.115-2.036-2.003-3.786-2.366-4.512c-0.001-0.002-0.002-0.005-0.003-0.007c-0.099-0.199-0.346-0.271-0.535-0.154
											c-0.801,0.499-2.652,1.956-2.488,4.71c0.209,3.504,1.087,5.811,1.924,7.091c0,0,2.315,4.169,1.504,5.151
											c-1.065,1.284-4.998-1.074-4.998-1.074c-6.59-3.162-13.768-6.635-19.023-8.637c-0.726-0.277-1.476-0.558-2.252-0.531
											c-0.776,0.028-1.594,0.444-1.848,1.178c-0.373,1.069,0.546,2.121,1.41,2.852c3.32,2.805,14.779,9.465,14.08,10.183
											c-0.795,0.789-14.258-7.495-21.17-9.64c-0.903-0.278-3.448-0.263-4.134,1.219c-0.969,2.088,2.428,4.171,3.545,4.883
											c5.395,3.443,18.504,10.135,18.06,11.015c-0.449,0.892-12.154-4.582-17.297-6.531c-0.899-0.341-1.829-0.688-2.793-0.664
											c-0.963,0.026-1.98,0.512-2.339,1.406c-0.332,0.833-0.014,1.814,0.565,2.498c0.579,0.686,1.384,1.135,2.169,1.569
											c4.708,2.612,17.53,8.339,16.703,9.362c-0.796,0.979-7.908-1.919-11.949-2.686c-1.164-0.221-3.34,0.085-3.573,1.244
											c-0.184,0.905,0.768,2.149,2.04,2.82c2.613,1.378,6.061,2.349,8.819,3.405c10.01,3.833,18.961,6.762,29.656,6.043
											L274.527,331.391z"/>
									</g>
								</g>
							</g>
						</g>
					</g>
				</g>
				<g>
					<path style="fill:#63A1EA;" d="M359.376,356.558c7.638-12.14,6.075-27.814-5.09-31.957
						c-3.901-1.448-59.378-20.329-68.734-15.576c-7.03,3.572-12.568,17.66-10.295,23.635
						C279.154,342.905,349.862,371.68,359.376,356.558z"/>
				</g>
				<path style="fill:#63A1EA;" d="M329.993,324.717c0,0,10.8,30.193,17.284,33.763c14.285,7.865,27.035-18.016,55.518-58.787
					c17.957-25.704,27.518-51.571,28.625-60.434c0.098-0.784-29.2-2.925-53.364,15.422
					C356.612,270.963,334.632,318.336,329.993,324.717z"/>
				<g>
					<polygon style="fill:#63A1EA;" points="272.632,304.25 263.624,325.79 275.422,332.669 285.871,308.944 					"/>
					<polygon style="opacity:0.3;fill:#63A1EA;" points="272.632,304.25 263.624,325.79 275.422,332.669 285.871,308.944 					"/>
				</g>
			</g>
		</g>
		<g style="clip-path:url(#SVGID_00000032613404111051926130000009293149741002776194_);">
			<g>
				<g>
					<g>
						<g>
							<polygon style="fill:#63A1EA;" points="109.467,427.233 115.247,376.469 177.073,376.116 230.296,375.816 236.192,427.233
															"/>
						</g>
						<path style="opacity:0.3;fill:#63A1EA;" d="M231.271,376.973c0,0-47.147,13.269-116.707,5.924l0.603-5.878L231.271,376.973z"
							/>
					</g>
					<g>
						<g>
							<g>
								<g>
									<path style="fill:#C17962;" d="M154.8,221.409l3.282-26.122c0,0,19.468-4.929,27.101-6.659
										c0.582,3.097,4.015,32.438,4.015,32.438s-5.809,8.428-16.702,8.428C160.489,229.494,154.8,221.409,154.8,221.409z"/>
								</g>
							</g>
						</g>
						<path style="fill:#FFB441;" d="M234.433,376.972c-1.326,0.138-2.652,0.265-3.957,0.403c-0.414,0.032-0.817,0.074-1.22,0.117
							c-0.021,0-0.032,0-0.053,0.011c-1.018,0.095-2.037,0.191-3.055,0.286c-51.04,4.742-89.105,2.939-108.339,0.859
							c-0.976-0.106-1.899-0.212-2.769-0.318c-0.011,0-0.011,0-0.011,0c-1.262-0.148-2.419-0.297-3.469-0.446
							c0,0,0.371-14.29,1.358-34.267c0.562-11.394,1.326-24.645,2.334-38.129l0.011-0.011c0.647-8.71,1.4-17.526,2.27-26.003
							c0.074-0.743,0.149-1.475,0.233-2.207v-0.011c0.01-0.085,0.01-0.159,0.021-0.233v-0.011c0.149-1.337,0.286-2.663,0.435-3.978
							c2.822-25.143,6.737-46.223,12.073-51.135c0.743-0.679,1.507-1.05,2.302-1.071c0.032-0.011,0.053-0.011,0.085-0.011
							l22.194-0.021l34.278-0.032h0.011l17.218-0.011c0,0.011,0,0.021,0.011,0.043c0.17,1.04,3.724,6.471,7.808,15.001
							c4.53,9.463,9.718,22.725,11.702,38.065c0.191,1.496,0.382,3.013,0.573,4.541c0.042,0.34,0.085,0.69,0.127,1.029
							c0.732,6.079,1.422,12.317,2.047,18.566c0,0.011,0,0.021,0,0.021c2.143,21.356,3.66,42.775,4.604,57.904
							c0.711,11.458,1.093,19.308,1.167,20.794C234.433,376.887,234.433,376.972,234.433,376.972z"/>
					</g>
					<g>
						<g>
							<path style="fill:#C17962;" d="M60.768,179.358c-2.505,26.568,57.987,94.27,57.987,94.27s6.856-13.154,12.575-17.418
								c0,0,17.703-13.566,0.731-32.498l-44.068-45.603C87.993,178.109,61.579,170.762,60.768,179.358z"/>
						</g>
						<g>
							<g>
								<g>
									<g>
										<path style="fill:#C17962;" d="M55.485,150.324l20.313-9.178c0,0-3.635-13.622-2.763-15.688
											c0.872-2.069,4.874-5.54,5.273-11.422c0.146-2.155,1.336-5.833,2.525-9.066c0.168-0.458,0.336-0.904,0.5-1.337
											c0.827-2.169,1.584-3.979,1.902-4.727c0.001-0.002,0.002-0.005,0.003-0.007c0.087-0.204-0.018-0.439-0.229-0.507
											c-0.899-0.287-3.208-0.752-5.199,1.159c-2.532,2.431-3.72,4.595-4.153,6.062c0,0-1.674,4.465-2.947,4.484
											c-1.668,0.021-2.422-4.502-2.422-4.502c-1.863-7.068-3.871-14.785-5.753-20.084c-0.26-0.732-0.532-1.486-1.055-2.059
											c-0.524-0.573-1.372-0.926-2.095-0.644c-1.056,0.409-1.261,1.791-1.258,2.923c0.016,4.346,2.373,17.389,1.372,17.322
											c-1.116-0.094-3.534-15.715-6.381-22.369c-0.374-0.868-2.035-2.796-3.608-2.358c-2.218,0.616-1.602,4.552-1.421,5.865
											c0.875,6.34,4.276,20.66,3.318,20.892c-0.97,0.237-4.389-12.225-6.238-17.404c-0.323-0.906-0.662-1.839-1.304-2.557
											c-0.643-0.716-1.673-1.176-2.587-0.869c-0.85,0.287-1.391,1.165-1.536,2.049c-0.146,0.886,0.033,1.789,0.211,2.669
											c1.062,5.278,5.013,18.754,3.698,18.787c-1.262,0.028-3.664-7.266-5.7-10.84c-0.586-1.03-2.229-2.488-3.263-1.915
											c-0.809,0.447-1.139,1.978-0.825,3.381c0.644,2.883,2.14,6.138,3.124,8.923c3.57,10.107,7.141,18.822,14.62,26.499
											L55.485,150.324z"/>
									</g>
								</g>
							</g>
							<path style="fill:#C17962;" d="M69.846,200.917c11.824-3.169,28.258-11.641,23.802-16.446
								c-2.419-2.599-21.861-63.104-22.819-63.055c-6.719,0.388-15.477,3.42-20.414,5.64
								C50.376,127.078,60.162,203.513,69.846,200.917z"/>
						</g>
						<polygon style="fill:#FFB441;" points="132.618,220.847 103.914,191.46 71.421,221.998 120.317,280.306 146.629,241.35
							"/>
					</g>
					<path style="opacity:0.3;fill:#FFB441;" d="M234.422,376.717c-0.042-1.464-0.286-9.177-0.944-20.868
						c-0.272-4.848-0.619-10.393-1.052-16.451c-0.113-1.584-0.232-3.202-0.358-4.856c-0.187-2.461-0.387-4.991-0.603-7.588
						c-0.021-0.254-0.041-0.501-0.062-0.756c-0.032-0.384-0.067-0.779-0.1-1.166c-0.081-0.953-0.162-1.908-0.247-2.876
						c-0.392-4.471-0.828-9.108-1.31-13.857c-0.102-1.008-0.206-2.02-0.313-3.038c-0.25-2.391-0.51-4.803-0.784-7.242
						c0,0,0-0.011,0-0.021c-0.626-6.249-1.316-12.487-2.047-18.566c-6.767,11.18-12.896,34.246-14.264,35.318
						c-1.082,0.859-50.361,0.55-54.193-0.949c-5.581-2.184-16.504-16.138-22.498-16.043c-4.054,0.073-1.079,9.911-0.184,12.614
						c0.101,0.306-0.16,0.601-0.476,0.538c-2.36-0.471-8.627-1.527-14.081-2.377c-0.146-2.132-2.802-24.199-3.375-29.058
						c-0.87,8.477-1.623,17.293-2.27,26.003l-0.011,0.011c-0.101,1.346-0.197,2.687-0.293,4.026
						c-0.022,0.013-0.049,0.024-0.058,0.04c0,0-1.398,18.933-1.961,30.327c0.042,0.033,0.102,0.069,0.161,0.105
						c-0.063,1.225-0.125,2.444-0.184,3.63c-0.987,19.977-1.358,34.267-1.358,34.267c1.05,0.149,2.207,0.297,3.469,0.446
						c0,0,0,0,0.011,0c0.87,0.106,1.793,0.212,2.769,0.318c0.011-0.52,0.021-1.061,0.042-1.634c0-0.18,0-0.361,0.011-0.552
						c0.17-7.384,0.938-31.285,1.035-33.003c6.512,1.43,16.734,1.997,21.944,0.914c3.302-0.686,9.23-1.864,11.86-2.644
						c0.971-0.288,1.998-0.259,2.952,0.084c7.075,2.546,38.344,12.102,70.129,13.864c0.009,0.668,0.019,1.332,0.027,2.007
						c0.074,5.623,0.117,11.511,0.287,18.152c0.011,0.371,0.021,0.753,0.032,1.135c0.011,0.265,0.011,0.541,0.021,0.817
						c1.019-0.096,2.037-0.191,3.055-0.286c0.021-0.011,0.032-0.011,0.053-0.011c0.403-0.042,0.806-0.085,1.22-0.117
						c1.305-0.138,2.631-0.265,3.957-0.403C234.433,376.972,234.433,376.887,234.422,376.717z"/>

						<path style="fill:none;stroke:#ED9520;stroke-width:1.0713;stroke-linecap:round;stroke-linejoin:round;stroke-miterlimit:10;" d="
						M132.802,220.825c0,0-4.239,40.091-15.021,56.208"/>
					<g>
						<g>
							<g>
								<path style="fill:#C17962;" d="M145.618,170.692c-1.445-5.699-5.201-8.77-9.623-8.665c-0.631,0.015-1.275,0.081-1.846,0.346
									c-0.557,0.258-1.012,0.691-1.399,1.163c-1.782,2.176-2.192,5.137-2.226,7.933c-0.031,2.54,0.232,5.205,1.643,7.331
									c1.342,2.022,3.696,3.356,6.144,3.484c2.449,0.127,4.931-0.955,6.482-2.826L145.618,170.692z"/>
							</g>
							<g>
								<path style="fill:#C17962;" d="M199.161,170.692c1.446-5.699,5.201-8.77,9.623-8.665c0.631,0.015,1.275,0.081,1.846,0.346
									c0.557,0.258,1.012,0.691,1.398,1.163c1.782,2.176,2.192,5.137,2.226,7.933c0.031,2.54-0.232,5.205-1.643,7.331
									c-1.342,2.022-3.696,3.356-6.144,3.484c-2.449,0.127-4.931-0.955-6.482-2.826L199.161,170.692z"/>
							</g>
						</g>
						<path style="fill:#111111;" d="M207.974,167.168c1.761,0.912,1.443,4.074-0.467,4.615c0.074,0.095,0.138,0.191,0.202,0.297
							c1.156,1.835,0.393,4.657-1.602,5.57c-4.88,32.506-30.936,29.949-33.896,29.949c-27.817,0-32.517-27.18-31.923-29.207
							c-1.772-1.4-2.207-4.212-0.934-6.068c-1.92-1.422-2.472-4.732-1.22-6.779c0.074-0.117,0.149-0.233,0.234-0.34
							c-1.517-1.517-1.496-4.286,0.042-5.782c-1.496-1.421-1.676-4.01-0.393-5.623c-1.708-1.666-1.294-4.944,0.764-6.143
							c-1.358-2.217-0.573-5.474,1.634-6.832c-1.103-2.196,0.499-5.262,2.939-5.591c-1.167-0.838-1.581-2.557-0.934-3.84
							c0.647-1.273,2.748-2.09,4.106-1.655c-0.191-1.369,0.509-2.822,1.708-3.522c1.188-0.69,2.801-0.584,3.894,0.265
							c-0.18-1.273,0.477-2.62,1.591-3.257s2.61-0.531,3.618,0.255c0.636-1.411,2.037-2.461,3.586-2.642
							c1.538-0.191,3.161,0.478,4.106,1.708c0.276-0.891,0.636-1.835,1.422-2.355c0.902-0.615,2.154-0.467,3.098,0.064
							c0.955,0.53,1.676,1.411,2.376,2.249c0.732-1.56,2.461-2.599,4.191-2.514c1.729,0.085,3.352,1.284,3.925,2.918
							c1.337-1.284,3.374-1.814,5.167-1.326c1.793,0.477,3.278,1.952,3.787,3.745c1.326-1.379,3.565-1.761,5.273-0.912
							c1.708,0.849,2.758,2.864,2.461,4.753c1.591-0.594,3.511-0.127,4.647,1.125c1.135,1.252,1.422,3.215,0.668,4.732
							c2.684-0.191,4.986,2.96,3.989,5.453c2.992,1.379,4.021,5.793,1.931,8.339c2.419,1.507,2.62,5.527,0.382,7.267
							c2.132,1.517,1.326,5.549-1.241,6.121c1.21-0.085,2.132,0.827,2.408,2.005C209.777,165.386,209.088,166.712,207.974,167.168z"
							/>
						<path d="M206.107,177.65c-4.88,32.506-30.936,29.949-33.896,29.949c-27.817,0-32.517-27.18-31.923-29.207
							c-1.772-1.4-2.207-4.212-0.934-6.068c-1.92-1.422-2.472-4.732-1.22-6.779c0.265,0.69,0.552,1.337,0.881,1.899
							c1.719,2.896,3.809,5.58,6.143,8.01c4.562,4.721,10.185,8.455,16.391,10.651c10.789,3.809,23.234,2.854,33.143-2.875
							c4.986-2.886,9.198-6.811,13.017-11.15C208.865,173.915,208.101,176.737,206.107,177.65z"/>
					</g>
					<g>
						<path style="fill:#C17962;" d="M327.151,225.697l1.896,29.072c0,0-48.896,9.907-65.007,10.512l-10.248-40.174
							C260.163,224.833,327.151,225.697,327.151,225.697z"/>
						<path style="fill:#FFB441;" d="M279.765,267.466c-7.638,1.655-20.825,4.413-32.644,6.822c-8.074,1.655-15.5,3.14-20.062,4
							c-0.201,0.042-0.392,0.074-0.584,0.117c-2.164,0.403-3.575,0.647-3.978,0.668c0,0-5.442-14.534-8.996-28.517
							c-4.318-17.006-7.734-29.737-7.734-29.737c0.202-0.011,0.403-0.011,0.626-0.021c1.761-0.053,4.222-0.074,7.182-0.064
							c17.24,0.042,51.432,0.965,62.54,1.517l0.233,2.886l3.109,38.479L279.765,267.466z"/>
					</g>

						<path style="fill:none;stroke:#ED9520;stroke-width:1.0713;stroke-linecap:round;stroke-linejoin:round;stroke-miterlimit:10;" d="
						M213.57,220.441c0,0-0.724,39.572,12.789,57.911"/>
				</g>
				<path style="fill:#C17962;" d="M350.063,218.06c1.926-0.573,3.893-1.152,5.901-1.088c3.848,0.124,7.339,2.683,9.319,5.984
					c1.98,3.302,2.371,9.384,1.386,13.095c-11.842,7.39-36.502,19.237-37.791,18.802c-0.951-0.321-12.081-27.889-12.081-27.889
					S338.802,221.412,350.063,218.06z"/>
			</g>
			<g>
				<g style="opacity:0.5;">
					<polygon style="fill:#63A1EA;" points="185.073,421.88 203.258,432.033 221.442,421.88 221.442,392.475 185.073,392.475
						"/>
					<polygon style="opacity:0.4;fill:#63A1EA;" points="185.073,421.88 203.258,432.033 221.442,421.88 221.442,392.475
						185.073,392.475 					"/>
					<g>
						<g>
							<polyline style="fill:none;stroke:#63A1EA;stroke-width:0.6713;stroke-linecap:round;stroke-linejoin:round;" points="
								216.339,421.198 218.358,420.07 218.358,417.757 							"/>

								<line style="fill:none;stroke:#63A1EA;stroke-width:0.6713;stroke-linecap:round;stroke-linejoin:round;stroke-dasharray:3.9768,3.9768;" x1="218.358" y1="413.78" x2="218.358" y2="399.862"/>
							<polyline style="fill:none;stroke:#63A1EA;stroke-width:0.6713;stroke-linecap:round;stroke-linejoin:round;" points="
								218.358,397.873 218.358,395.56 216.045,395.56 							"/>

								<line style="fill:none;stroke:#63A1EA;stroke-width:0.6713;stroke-linecap:round;stroke-linejoin:round;stroke-dasharray:5.1148,5.1148;" x1="210.93" y1="395.56" x2="193.029" y2="395.56"/>
							<polyline style="fill:none;stroke:#63A1EA;stroke-width:0.6713;stroke-linecap:round;stroke-linejoin:round;" points="
								190.471,395.56 188.158,395.56 188.158,397.873 							"/>

								<line style="fill:none;stroke:#63A1EA;stroke-width:0.6713;stroke-linecap:round;stroke-linejoin:round;stroke-dasharray:3.9768,3.9768;" x1="188.158" y1="401.85" x2="188.158" y2="415.769"/>
							<polyline style="fill:none;stroke:#63A1EA;stroke-width:0.6713;stroke-linecap:round;stroke-linejoin:round;" points="
								188.158,417.757 188.158,420.07 190.178,421.198 							"/>

								<line style="fill:none;stroke:#63A1EA;stroke-width:0.6713;stroke-linecap:round;stroke-linejoin:round;stroke-dasharray:4.2221,4.2221;" x1="193.865" y1="423.256" x2="199.394" y2="426.343"/>
							<polyline style="fill:none;stroke:#63A1EA;stroke-width:0.6713;stroke-linecap:round;stroke-linejoin:round;" points="
								201.238,427.372 203.257,428.5 205.277,427.372 							"/>

								<line style="fill:none;stroke:#63A1EA;stroke-width:0.6713;stroke-linecap:round;stroke-linejoin:round;stroke-dasharray:4.2226,4.2226;" x1="208.964" y1="425.314" x2="214.495" y2="422.227"/>
						</g>
					</g>
				</g>
				<g style="opacity:0.5;">
					<polygon style="fill:#63A1EA;" points="122.554,421.88 140.739,432.033 158.923,421.88 158.923,392.475 122.554,392.475
						"/>
					<polygon style="opacity:0.4;fill:#63A1EA;" points="122.554,421.88 140.739,432.033 158.923,421.88 158.923,392.475
						122.554,392.475 					"/>
					<g>
						<g>
							<polyline style="fill:none;stroke:#63A1EA;stroke-width:0.6713;stroke-linecap:round;stroke-linejoin:round;" points="
								153.82,421.198 155.84,420.07 155.84,417.757 							"/>

								<line style="fill:none;stroke:#63A1EA;stroke-width:0.6713;stroke-linecap:round;stroke-linejoin:round;stroke-dasharray:3.9768,3.9768;" x1="155.84" y1="413.78" x2="155.84" y2="399.862"/>
							<polyline style="fill:none;stroke:#63A1EA;stroke-width:0.6713;stroke-linecap:round;stroke-linejoin:round;" points="
								155.84,397.873 155.84,395.56 153.526,395.56 							"/>

								<line style="fill:none;stroke:#63A1EA;stroke-width:0.6713;stroke-linecap:round;stroke-linejoin:round;stroke-dasharray:5.1148,5.1148;" x1="148.412" y1="395.56" x2="130.51" y2="395.56"/>
							<polyline style="fill:none;stroke:#63A1EA;stroke-width:0.6713;stroke-linecap:round;stroke-linejoin:round;" points="
								127.952,395.56 125.639,395.56 125.639,397.873 							"/>

								<line style="fill:none;stroke:#63A1EA;stroke-width:0.6713;stroke-linecap:round;stroke-linejoin:round;stroke-dasharray:3.9768,3.9768;" x1="125.639" y1="401.85" x2="125.639" y2="415.769"/>
							<polyline style="fill:none;stroke:#63A1EA;stroke-width:0.6713;stroke-linecap:round;stroke-linejoin:round;" points="
								125.639,417.757 125.639,420.07 127.659,421.198 							"/>

								<line style="fill:none;stroke:#63A1EA;stroke-width:0.6713;stroke-linecap:round;stroke-linejoin:round;stroke-dasharray:4.2221,4.2221;" x1="131.346" y1="423.256" x2="136.876" y2="426.343"/>
							<polyline style="fill:none;stroke:#63A1EA;stroke-width:0.6713;stroke-linecap:round;stroke-linejoin:round;" points="
								138.719,427.372 140.739,428.5 142.759,427.372 							"/>

								<line style="fill:none;stroke:#63A1EA;stroke-width:0.6713;stroke-linecap:round;stroke-linejoin:round;stroke-dasharray:4.2226,4.2226;" x1="146.446" y1="425.314" x2="151.976" y2="422.227"/>
						</g>
					</g>
				</g>
				<g style="opacity:0.4;">

						<path style="fill:none;stroke:#63A1EA;stroke-width:0.6716;stroke-linecap:round;stroke-linejoin:round;stroke-miterlimit:10;" d="
						M230.541,382.121c-16.635,3.899-77.232,9.977-115.7-0.16"/>

						<line style="fill:none;stroke:#63A1EA;stroke-width:0.6716;stroke-linecap:round;stroke-linejoin:round;stroke-miterlimit:10;" x1="171.54" y1="380.822" x2="171.54" y2="431.245"/>
				</g>
			</g>
			<path style="opacity:0.2;fill:#FFB441;" d="M246.4,273.778c0.244,0.159,0.488,0.329,0.721,0.509c-8.074,1.655-15.5,3.14-20.062,4
				"/>

				<path style="fill:none;stroke:#000000;stroke-width:0.5305;stroke-linecap:round;stroke-linejoin:round;stroke-miterlimit:10;" d="
				M158.176,132.533c-1.824-0.332-3.763,1.176-3.89,3.026c-0.697-0.718-1.913-0.857-2.754-0.315
				c-0.841,0.542-1.217,1.707-0.85,2.638"/>

				<path style="fill:none;stroke:#000000;stroke-width:0.5305;stroke-linecap:round;stroke-linejoin:round;stroke-miterlimit:10;" d="
				M194.981,155.534c-0.839-1.653-3.214-2.284-4.763-1.266c0.15-0.99-0.476-2.042-1.416-2.383c-0.941-0.341-2.095,0.065-2.615,0.92"
				/>

				<path style="fill:none;stroke:#000000;stroke-width:0.5305;stroke-linecap:round;stroke-linejoin:round;stroke-miterlimit:10;" d="
				M149.95,157.482c-0.329-1.038,0.291-2.245,1.281-2.699c0.99-0.453,2.224-0.194,3.046,0.52c0.129-0.774,0.751-1.443,1.513-1.628
				c0.763-0.185,1.622,0.124,2.092,0.753c0.632-1.015,2.036-1.465,3.141-1.007c1.104,0.458,1.777,1.77,1.505,2.935"/>

				<path style="fill:none;stroke:#000000;stroke-width:0.5305;stroke-linecap:round;stroke-linejoin:round;stroke-miterlimit:10;" d="
				M171.776,174.604c-0.37-1.198,0.666-2.512,1.901-2.727c1.235-0.215,2.492,0.445,3.322,1.384c0.027-0.635,0.468-1.201,1.021-1.515
				c0.553-0.314,1.203-0.411,1.839-0.432c0.963-0.032,2.054,0.171,2.583,0.976c0.505,0.769,0.308,1.789,0.034,2.667"/>

				<path style="fill:none;stroke:#000000;stroke-width:0.5305;stroke-linecap:round;stroke-linejoin:round;stroke-miterlimit:10;" d="
				M181.647,131.599c0.316-0.872,1.195-1.509,2.122-1.538c0.927-0.029,1.844,0.551,2.215,1.402c0.05,0.116,0.095,0.24,0.191,0.322
				c0.178,0.152,0.446,0.095,0.675,0.046c1.3-0.277,2.766,0.058,3.669,1.034s1.087,2.611,0.261,3.652"/>
		</g>
		<g style="clip-path:url(#SVGID_00000032613404111051926130000009293149741002776194_);">
			<defs>
				<polygon id="SVGID_00000132793000838666031640000013939786970281863582_" points="277.217,268.087 226.523,278.415
					211.122,315.572 114.944,295.22 105.748,344.381 238.265,359.255 270.073,292.246 				"/>
			</defs>
			<clipPath id="SVGID_00000027567146783583231860000015494834820720652933_">
				<use xlink:href="#SVGID_00000132793000838666031640000013939786970281863582_"  style="overflow:visible;"/>
			</clipPath>
			<g style="clip-path:url(#SVGID_00000027567146783583231860000015494834820720652933_);">
				<path style="fill:#F9B295;" d="M278.556,230.75l-9.666,45.892c0,0-24.851,68.296-33.872,73.329
					c-4.565,2.553-9.984,1.368-14.632-0.789l-0.01,0.004c-0.312-0.148-0.623-0.297-0.935-0.445
					c-0.031-0.023-0.044-0.029-0.058-0.036c-0.342-0.171-0.688-0.353-1.034-0.534c-0.085-0.049-0.17-0.098-0.264-0.143
					c-3.272-1.8-5.956-3.876-7.343-5.028c-0.147-0.128-0.303-0.253-0.46-0.377c-0.385-0.325-0.59-0.522-0.59-0.522
					c0.091-0.314,0.186-0.617,0.277-0.931c3.582-12.088,6.561-21.811,9.091-29.755c10.604-33.297,9.841-32.843,16.66-45.888
					C245.475,246.866,249.716,236.687,278.556,230.75z"/>
				<g>
					<path style="fill:#F9B295;" d="M236.983,346.686c-0.474,2.33-1.842,4.031-4.447,4.587l-0.006,0.009
						c-0.339,0.065-0.678,0.131-1.016,0.196c-0.038,0-0.053,0.003-0.068,0.006c-0.377,0.065-0.763,0.124-1.149,0.184
						c-0.097,0.011-0.194,0.022-0.298,0.042c-2.647,0.336-5.649,0.419-8.894,0.312c-0.194-0.016-0.394-0.023-0.594-0.031
						c-3.936-0.164-8.188-0.619-12.615-1.269c-20.366-3.026-55.348-14.665-55.348-14.665l1.908-16.538
						c0.026,0.018,38.973,2.275,54.595,2.145c4.738-0.037,8.555-0.247,10.774-0.668
						C227.177,319.577,238.772,337.753,236.983,346.686z"/>
					<g>
						<g>
							<g>
								<path style="fill:#F9B295;" d="M165.695,339.562l1.824-17.897c0,0-11.486-1.243-12.738-2.624
									c-1.255-1.382-2.469-5.615-6.764-7.976c-1.573-0.866-3.93-3.051-5.95-5.08c-0.287-0.287-0.564-0.57-0.833-0.845
									c-1.345-1.384-2.445-2.589-2.897-3.09c-0.001-0.001-0.003-0.003-0.004-0.005c-0.123-0.137-0.338-0.14-0.463-0.005
									c-0.531,0.577-1.691,2.155-0.948,4.326c0.945,2.76,2.161,4.414,3.115,5.254c0,0,2.78,2.826,2.348,3.792
									c-0.568,1.265-4.243,0.249-4.243,0.249c-5.981-1.071-12.503-2.261-17.157-2.698c-0.643-0.06-1.306-0.119-1.922,0.075
									c-0.615,0.195-1.178,0.71-1.22,1.354c-0.061,0.939,0.909,1.578,1.763,1.972c3.282,1.51,13.94,4.303,13.539,5.034
									c-0.462,0.808-13.086-2.84-19.099-3.025c-0.786-0.022-2.821,0.555-3.042,1.894c-0.313,1.888,2.87,2.802,3.924,3.126
									c5.086,1.561,17.073,4.014,16.912,4.817c-0.161,0.814-10.754-0.974-15.306-1.394c-0.796-0.074-1.618-0.145-2.385,0.088
									c-0.766,0.234-1.472,0.849-1.561,1.645c-0.081,0.741,0.391,1.457,1.007,1.875c0.616,0.421,1.36,0.602,2.086,0.776
									c4.351,1.048,15.895,2.791,15.459,3.794c-0.421,0.96-6.761,0.217-10.169,0.5c-0.981,0.081-2.657,0.809-2.586,1.789
									c0.054,0.766,1.092,1.552,2.26,1.807c2.399,0.524,5.377,0.536,7.821,0.77c8.87,0.849,16.497-0.47,24.905-3.419
									L165.695,339.562z"/>
							</g>
						</g>
					</g>
				</g>
			</g>
			<g style="clip-path:url(#SVGID_00000027567146783583231860000015494834820720652933_);">
				<path style="fill:#F9B295;" d="M278.556,230.75l-9.666,45.892c0,0-24.851,68.296-33.872,73.329
					c-4.565,2.553-9.984,1.368-14.632-0.789l-0.01,0.004c-0.312-0.148-0.623-0.297-0.935-0.445
					c-0.031-0.023-0.044-0.029-0.058-0.036c-0.342-0.171-0.688-0.353-1.034-0.534c-0.085-0.049-0.17-0.098-0.264-0.143
					c-3.272-1.8-5.956-3.876-7.343-5.028c-0.147-0.128-0.303-0.253-0.46-0.377c-0.385-0.325-0.59-0.522-0.59-0.522
					c0.091-0.314,0.186-0.617,0.277-0.931c3.582-12.088,6.561-21.811,9.091-29.755c10.604-33.297,9.841-32.843,16.66-45.888
					C245.475,246.866,249.716,236.687,278.556,230.75z"/>
				<g>
					<path style="fill:#F9B295;" d="M236.983,346.686c-0.474,2.33-1.842,4.031-4.447,4.587l-0.006,0.009
						c-0.339,0.065-0.678,0.131-1.016,0.196c-0.038,0-0.053,0.003-0.068,0.006c-0.377,0.065-0.763,0.124-1.149,0.184
						c-0.097,0.011-0.194,0.022-0.298,0.042c-2.647,0.336-5.649,0.419-8.894,0.312c-0.194-0.016-0.394-0.023-0.594-0.031
						c-3.936-0.164-8.188-0.619-12.615-1.269c-20.366-3.026-55.348-14.665-55.348-14.665l1.908-16.538
						c0.026,0.018,38.973,2.275,54.595,2.145c4.738-0.037,8.555-0.247,10.774-0.668
						C227.177,319.577,238.772,337.753,236.983,346.686z"/>
					<g>
						<g>
							<g>
								<path style="fill:#F9B295;" d="M165.695,339.562l1.824-17.897c0,0-11.486-1.243-12.738-2.624
									c-1.255-1.382-2.469-5.615-6.764-7.976c-1.573-0.866-3.93-3.051-5.95-5.08c-0.287-0.287-0.564-0.57-0.833-0.845
									c-1.345-1.384-2.445-2.589-2.897-3.09c-0.001-0.001-0.003-0.003-0.004-0.005c-0.123-0.137-0.338-0.14-0.463-0.005
									c-0.531,0.577-1.691,2.155-0.948,4.326c0.945,2.76,2.161,4.414,3.115,5.254c0,0,2.78,2.826,2.348,3.792
									c-0.568,1.265-4.243,0.249-4.243,0.249c-5.981-1.071-12.503-2.261-17.157-2.698c-0.643-0.06-1.306-0.119-1.922,0.075
									c-0.615,0.195-1.178,0.71-1.22,1.354c-0.061,0.939,0.909,1.578,1.763,1.972c3.282,1.51,13.94,4.303,13.539,5.034
									c-0.462,0.808-13.086-2.84-19.099-3.025c-0.786-0.022-2.821,0.555-3.042,1.894c-0.313,1.888,2.87,2.802,3.924,3.126
									c5.086,1.561,17.073,4.014,16.912,4.817c-0.161,0.814-10.754-0.974-15.306-1.394c-0.796-0.074-1.618-0.145-2.385,0.088
									c-0.766,0.234-1.472,0.849-1.561,1.645c-0.081,0.741,0.391,1.457,1.007,1.875c0.616,0.421,1.36,0.602,2.086,0.776
									c4.351,1.048,15.895,2.791,15.459,3.794c-0.421,0.96-6.761,0.217-10.169,0.5c-0.981,0.081-2.657,0.809-2.586,1.789
									c0.054,0.766,1.092,1.552,2.26,1.807c2.399,0.524,5.377,0.536,7.821,0.77c8.87,0.849,16.497-0.47,24.905-3.419
									L165.695,339.562z"/>
							</g>
						</g>
					</g>
				</g>
			</g>
			<path style="clip-path:url(#SVGID_00000027567146783583231860000015494834820720652933_);fill:#FF9100;" d="M269.193,276.554
				l-18.274-37.314c0,0,11.92-8.946,34.692-6.961l-11.926,32.16L269.193,276.554z"/>

				<polygon style="opacity:0.15;clip-path:url(#SVGID_00000027567146783583231860000015494834820720652933_);fill:#F9B295;" points="
				268.61,277.415 269.053,276.264 261.367,261.047 232.968,268.662 228.65,281.419 			"/>
		</g>
		<g style="clip-path:url(#SVGID_00000032613404111051926130000009293149741002776194_);">
			<g>
				<g>
					<path style="fill:#F9B295;" d="M484.532,319.772l-1.257-17.945c0,0,11.52-0.879,12.815-2.22
						c1.297-1.342,2.645-5.534,7.013-7.759c1.6-0.815,4.024-2.925,6.108-4.889c0.296-0.278,0.582-0.552,0.859-0.819
						c1.388-1.341,2.525-2.51,2.993-2.996c0.001-0.001,0.003-0.003,0.004-0.005c0.127-0.133,0.342-0.13,0.463,0.01
						c0.513,0.594,1.622,2.207,0.81,4.353c-1.032,2.729-2.299,4.343-3.28,5.153c0,0-2.868,2.737-2.467,3.716
						c0.528,1.282,4.233,0.383,4.233,0.383c6.012-0.881,12.568-1.864,17.233-2.155c0.644-0.04,1.31-0.078,1.918,0.135
						c0.609,0.214,1.155,0.747,1.176,1.392c0.031,0.941-0.958,1.549-1.825,1.915c-3.328,1.406-14.07,3.86-13.692,4.603
						c0.436,0.822,13.169-2.425,19.185-2.42c0.786,0.003,2.802,0.644,2.98,1.99c0.253,1.897-2.958,2.71-4.021,3
						c-5.133,1.4-17.191,3.472-17.056,4.28c0.135,0.819,10.779-0.634,15.343-0.909c0.798-0.049,1.622-0.094,2.381,0.163
						c0.758,0.258,1.445,0.895,1.508,1.694c0.058,0.743-0.437,1.443-1.066,1.843c-0.629,0.401-1.379,0.559-2.109,0.71
						c-4.382,0.91-15.975,2.287-15.571,3.303c0.39,0.973,6.751,0.431,10.148,0.821c0.978,0.112,2.63,0.893,2.528,1.87
						c-0.078,0.764-1.14,1.516-2.316,1.734c-2.415,0.448-5.391,0.366-7.841,0.523c-8.892,0.568-16.474-0.992-24.784-4.205
						L484.532,319.772z"/>
				</g>
			</g>
		</g>
	</g>
</g>
</svg>
